<svg  id="Layer_1" data-name="Layer 1" xmlns="http://www.w3.org/2000/svg" xmlns:xlink="http://www.w3.org/1999/xlink" viewBox="0 0 2445.26 2878.55"><defs><style>.cls-1{mask:url(#mask);}.cls-2,.cls-4,.cls-6,.cls-8{mix-blend-mode:multiply;}.cls-2{fill:url(#linear-gradient);}.cls-3{mask:url(#mask-2);}.cls-4{fill:url(#linear-gradient-2);}.cls-5{mask:url(#mask-3);}.cls-6{fill:url(#linear-gradient-3);}.cls-7{mask:url(#mask-4);}.cls-8{fill:url(#linear-gradient-4);}.cls-12,.cls-16,.cls-9{fill:#000072;}.cls-11,.cls-9{opacity:0.2;}.cls-10{fill:#9c9c9c;}.cls-13{opacity:0.6;}.cls-14,.cls-17{fill:#fff;}.cls-15{fill:#dbdbdb;}.cls-16,.cls-17{fill-rule:evenodd;}.cls-18{mask:url(#mask-5);}.cls-19{fill:url(#linear-gradient-5);}.cls-20{mask:url(#mask-6);}.cls-21{fill:url(#linear-gradient-6);}.cls-22{mask:url(#mask-7);}.cls-23{fill:url(#linear-gradient-7);}.cls-24{mask:url(#mask-8);}.cls-25{fill:url(#linear-gradient-8);}.cls-26{fill:#fdcb38;}.cls-27{fill:#ff4239;}.cls-28{fill:#3c6;}.cls-29{fill:#785151;}.cls-30{fill:#4e3da3;}.cls-31{filter:url(#luminosity-noclip-8);}.cls-32{filter:url(#luminosity-noclip-7);}.cls-33{filter:url(#luminosity-noclip-6);}.cls-34{filter:url(#luminosity-noclip-5);}.cls-35{filter:url(#luminosity-noclip-4);}.cls-36{filter:url(#luminosity-noclip-3);}.cls-37{filter:url(#luminosity-noclip-2);}.cls-38{filter:url(#luminosity-noclip);}</style><filter id="luminosity-noclip" x="2017.82" y="-10192" width="422.16" height="32766" filterUnits="userSpaceOnUse" color-interpolation-filters="sRGB"><feFlood flood-color="#fff" result="bg"/><feBlend in="SourceGraphic" in2="bg"/></filter><mask id="mask" x="2017.82" y="-10192" width="422.16" height="32766" maskUnits="userSpaceOnUse"><g class="cls-38"/></mask><linearGradient id="linear-gradient" x1="2460.99" y1="1805.22" x2="1940.67" y2="2235.32" gradientUnits="userSpaceOnUse"><stop offset="0" stop-color="#fff"/><stop offset="0.99"/></linearGradient><filter id="luminosity-noclip-2" x="1935.49" y="-10192" width="458.39" height="32766" filterUnits="userSpaceOnUse" color-interpolation-filters="sRGB"><feFlood flood-color="#fff" result="bg"/><feBlend in="SourceGraphic" in2="bg"/></filter><mask id="mask-2" x="1935.49" y="-10192" width="458.39" height="32766" maskUnits="userSpaceOnUse"><g class="cls-37"/></mask><linearGradient id="linear-gradient-2" x1="2353.16" y1="1674.78" x2="1832.85" y2="2104.87" xlink:href="#linear-gradient"/><filter id="luminosity-noclip-3" x="1409.89" y="-10192" width="361.05" height="32766" filterUnits="userSpaceOnUse" color-interpolation-filters="sRGB"><feFlood flood-color="#fff" result="bg"/><feBlend in="SourceGraphic" in2="bg"/></filter><mask id="mask-3" x="1409.89" y="-10192" width="361.05" height="32766" maskUnits="userSpaceOnUse"><g class="cls-36"/></mask><linearGradient id="linear-gradient-3" x1="1861.15" y1="1636.57" x2="1399.58" y2="1995.33" xlink:href="#linear-gradient"/><filter id="luminosity-noclip-4" x="1339.48" y="-10192" width="392.04" height="32766" filterUnits="userSpaceOnUse" color-interpolation-filters="sRGB"><feFlood flood-color="#fff" result="bg"/><feBlend in="SourceGraphic" in2="bg"/></filter><mask id="mask-4" x="1339.48" y="-10192" width="392.04" height="32766" maskUnits="userSpaceOnUse"><g class="cls-35"/></mask><linearGradient id="linear-gradient-4" x1="1771.46" y1="1521.19" x2="1309.9" y2="1879.95" xlink:href="#linear-gradient"/><filter id="luminosity-noclip-5" x="2017.82" y="1803.04" width="422.16" height="337.23" filterUnits="userSpaceOnUse" color-interpolation-filters="sRGB"><feFlood flood-color="#fff" result="bg"/><feBlend in="SourceGraphic" in2="bg"/></filter><mask id="mask-5" x="1293.61" y="1207.51" width="422.16" height="337.23" maskUnits="userSpaceOnUse"><g class="cls-34"><g transform="translate(-724.22 -595.53)"><g class="cls-1"><path class="cls-2" d="M2017.82,2087,2420.44,1803a250.31,250.31,0,0,1,19.44,104.18l-330.44,233A250.42,250.42,0,0,1,2017.82,2087Z"/></g></g></g></mask><linearGradient id="linear-gradient-5" x1="2460.99" y1="1805.22" x2="1940.67" y2="2235.32" gradientUnits="userSpaceOnUse"><stop offset="0" stop-color="#fff"/><stop offset="0.99" stop-color="#fff"/></linearGradient><filter id="luminosity-noclip-6" x="1935.49" y="1664.75" width="458.39" height="381.13" filterUnits="userSpaceOnUse" color-interpolation-filters="sRGB"><feFlood flood-color="#fff" result="bg"/><feBlend in="SourceGraphic" in2="bg"/></filter><mask id="mask-6" x="1211.28" y="1069.22" width="458.39" height="381.13" maskUnits="userSpaceOnUse"><g class="cls-33"><g transform="translate(-724.22 -595.53)"><g class="cls-3"><path class="cls-4" d="M1935.49,1906l342.13-241.29a251.37,251.37,0,0,1,116.26,90.35l-412.3,290.78A251.42,251.42,0,0,1,1935.49,1906Z"/></g></g></g></mask><linearGradient id="linear-gradient-6" x1="2353.16" y1="1674.78" x2="1832.85" y2="2104.87" xlink:href="#linear-gradient-5"/><filter id="luminosity-noclip-7" x="1409.89" y="1681.06" width="361.05" height="288.42" filterUnits="userSpaceOnUse" color-interpolation-filters="sRGB"><feFlood flood-color="#fff" result="bg"/><feBlend in="SourceGraphic" in2="bg"/></filter><mask id="mask-7" x="685.67" y="1085.53" width="361.05" height="288.42" maskUnits="userSpaceOnUse"><g class="cls-32"><g transform="translate(-724.22 -595.53)"><g class="cls-5"><path class="cls-6" d="M1409.89,1923.91l344.34-242.85a214.36,214.36,0,0,1,16.63,89.1l-282.62,199.32A214.15,214.15,0,0,1,1409.89,1923.91Z"/></g></g></g></mask><linearGradient id="linear-gradient-7" x1="1861.15" y1="1636.57" x2="1399.58" y2="1995.33" xlink:href="#linear-gradient-5"/><filter id="luminosity-noclip-8" x="1339.48" y="1562.78" width="392.04" height="325.96" filterUnits="userSpaceOnUse" color-interpolation-filters="sRGB"><feFlood flood-color="#fff" result="bg"/><feBlend in="SourceGraphic" in2="bg"/></filter><mask id="mask-8" x="615.26" y="967.26" width="392.04" height="325.96" maskUnits="userSpaceOnUse"><g class="cls-31"><g transform="translate(-724.22 -595.53)"><g class="cls-7"><path class="cls-8" d="M1339.48,1769.15l292.6-206.37a215,215,0,0,1,99.43,77.28l-352.62,248.69A215,215,0,0,1,1339.48,1769.15Z"/></g></g></g></mask><linearGradient id="linear-gradient-8" x1="1771.46" y1="1521.19" x2="1309.9" y2="1879.95" xlink:href="#linear-gradient-5"/></defs><title>3400_2_11 [Convertido]</title><ellipse class="cls-9" cx="1222.63" cy="2498.41" rx="1222.63" ry="380.14"/><path class="cls-10" d="M2667.25,2246.84s535.65,1062.45-677.63,1008c-347-15.57-551-139-633.71-322.22a453.91,453.91,0,0,1-17.62-45.23c-87.34-265.18,58.5-573.69,155.08-656.18,0,0-226.07-279.43-86.5-667.69,16.74-46.6,44.75-99.13,83.22-151.8,154.16-211.44,475.84-424.73,907.47-260.59,203.7,77.45,328.92,214.72,394.86,367.45,45.58,105.5,62.86,218.39,58.11,324C2842.45,2021.84,2771.13,2180.31,2667.25,2246.84Z" transform="translate(-724.22 -595.53)"/><g class="cls-11"><path class="cls-12" d="M2667.25,2246.84s535.65,1062.45-677.63,1008c-347-15.57-551-139-633.71-322.22a948.85,948.85,0,0,0,140.94,89.64c205.41,106.33,449.6,135.65,674.39,81,95.12-23.16,186.62-60.75,271.45-109.66,79.95-46.06,157.54-106.42,192.44-191.85,32.75-80.09,23.3-171.93-3.67-254.12-28.82-88-80.94-172.71-157.07-223.22a32.88,32.88,0,0,1-2.18-53.59c88.32-68.18,158.28-160.09,199.93-263.6,20.61-51.25,34.07-110.48,11-160.61-28.2-61.44-144.47-108.34-147.6-178.69-3.23-73,182.65-123.26,238.75-143.19,6-2.15,12-4.21,18.16-6.12,45.58,105.5,62.86,218.39,58.11,324C2842.45,2021.84,2771.13,2180.31,2667.25,2246.84Z" transform="translate(-724.22 -595.53)"/></g><g class="cls-13"><path class="cls-14" d="M2850.53,1842.62h-.1S2716,1279,2236.4,1163.82C1933,1091,1654.14,1270.15,1490.09,1411.73c154.16-211.44,475.84-424.73,907.47-260.59C2741.9,1282.1,2862.13,1584,2850.53,1842.62Z" transform="translate(-724.22 -595.53)"/></g><path class="cls-15" d="M1684.14,1564.2c-124.22-11.65-256.52,122.37-274.43,276.43-16.38,140.85,27.61,270.24,118.89,365.94-8.16,0-35.22,24.72-35.22,24.72-96.62,82.49-242.44,391.05-155.07,656.22C1389.2,3042,1517.18,3160,1733,3217.63c7.51,1,12.67.93,20.86,2.28,255.63,42.3,586.82-140.68,597.4-451.47S2203,2329.24,2203,2329.24c-1.1-1.38-2.33-2.36-3.43-3.72,9.93-5.95,19.78-11.87,28.28-18.56,186.15-146.49,237.35-464.28,48-617.68-222.74-180.42-438.63-7.14-438.63-7.14C1795.47,1604.85,1740.59,1569.5,1684.14,1564.2Z" transform="translate(-724.22 -595.53)"/><path class="cls-16" d="M1562.11,1861.15c0-43.83,19.84-79.35,44.32-79.35s44.32,35.52,44.32,79.35-19.84,79.35-44.32,79.35S1562.11,1905,1562.11,1861.15Z" transform="translate(-724.22 -595.53)"/><path class="cls-17" d="M1587.51,1889.52c0-11,6.25-20,14-20s14,8.94,14,20-6.25,20-14,20S1587.51,1900.55,1587.51,1889.52Z" transform="translate(-724.22 -595.53)"/><path class="cls-16" d="M2002.67,1961.69c0-50.9,28.83-92.15,64.4-92.15s64.41,41.25,64.41,92.15-28.85,92.15-64.41,92.15S2002.67,2012.59,2002.67,1961.69Z" transform="translate(-724.22 -595.53)"/><path class="cls-17" d="M2037.8,1988c0-14.11,8-25.54,17.85-25.54s17.85,11.43,17.85,25.54-8,25.54-17.85,25.54S2037.8,2002.08,2037.8,1988Z" transform="translate(-724.22 -595.53)"/><path class="cls-12" d="M2077,3276.45q-42.93,0-88.24-2c-184-8.26-335.32-46.87-449.67-114.76-108.63-64.49-182.44-154-219.37-266.15-85.94-260.81,46.82-563,147.56-664.68-18.86-26.88-58.27-89.42-88.07-179.72-36.62-110.93-64.74-286.38,9.22-492.18,49.7-138.26,192.87-320.57,400.72-416.19,188.33-86.64,401.14-89.37,615.37-7.9,265,100.77,433.45,317.93,462.2,595.81,11.34,109.58-1.25,223.22-35.46,320-31.72,89.76-80.75,161.74-139.14,204.8,17.09,36.87,59.69,135.63,87.45,259.34,46.35,206.5,27.5,382.65-54.53,509.41C2615.74,3191.08,2397.91,3276.44,2077,3276.45Zm19.64-2164.4c-100.72,0-198,21.43-291.13,64.27-197.53,90.87-333.29,263.29-380.22,393.86-69.94,194.59-43.72,360.33-9.4,465.1,37.37,114.1,92.2,183,92.75,183.64a19.6,19.6,0,0,1-2.53,27.19c-42.34,36.16-102.22,127.64-140.55,250.52-30,96.28-55.92,241.16-8.65,384.62,71.24,216.22,290.34,338.64,633.61,354q44.67,2,86.89,2c306.51,0,513-79.31,614.69-236.3,185.15-285.95-40.05-740.82-42.35-745.38a19.59,19.59,0,0,1,6.92-25.3c121-77.46,192.92-286.75,171.1-497.64-27.18-262.63-186.52-467.92-437.17-563.24C2290,1131.18,2191.77,1112.05,2096.63,1112.05Z" transform="translate(-724.22 -595.53)"/><g class="cls-18"><path class="cls-19" d="M2017.82,2087,2420.44,1803a250.31,250.31,0,0,1,19.44,104.18l-330.44,233A250.42,250.42,0,0,1,2017.82,2087Z" transform="translate(-724.22 -595.53)"/></g><g class="cls-20"><path class="cls-21" d="M1935.49,1906l342.13-241.29a251.37,251.37,0,0,1,116.26,90.35l-412.3,290.78A251.42,251.42,0,0,1,1935.49,1906Z" transform="translate(-724.22 -595.53)"/></g><path class="cls-12" d="M2192.06,2180c-149.9,0-271.85-122-271.85-271.85s122-271.85,271.85-271.85,271.85,122,271.85,271.85S2342,2180,2192.06,2180Zm0-504.54c-128.3,0-232.69,104.38-232.69,232.69s104.39,232.68,232.69,232.68,232.69-104.38,232.69-232.68S2320.37,1675.42,2192.06,1675.42Z" transform="translate(-724.22 -595.53)"/><path class="cls-12" d="M2192.05,2180a273.23,273.23,0,0,1-58.7-6.39,268.22,268.22,0,0,1-103.86-47.6c-69.45-51.83-109.28-131.24-109.28-217.86s39.83-166,109.3-217.87a268.09,268.09,0,0,1,103.86-47.59A271.87,271.87,0,1,1,2192.05,2180Zm0-504.53a234.17,234.17,0,0,0-50.28,5.47,229.4,229.4,0,0,0-88.82,40.71c-59.48,44.4-93.58,112.37-93.58,186.5s34.1,142.11,93.56,186.49a229.37,229.37,0,0,0,88.83,40.72,234.33,234.33,0,0,0,50.29,5.47,232.68,232.68,0,1,0,0-465.36Z" transform="translate(-724.22 -595.53)"/><g class="cls-22"><path class="cls-23" d="M1409.89,1923.91l344.34-242.85a214.36,214.36,0,0,1,16.63,89.1l-282.62,199.32A214.15,214.15,0,0,1,1409.89,1923.91Z" transform="translate(-724.22 -595.53)"/></g><g class="cls-24"><path class="cls-25" d="M1339.48,1769.15l292.6-206.37a215,215,0,0,1,99.43,77.28l-352.62,248.69A215,215,0,0,1,1339.48,1769.15Z" transform="translate(-724.22 -595.53)"/></g><path class="cls-12" d="M1555.21,2002.61c-130.4,0-236.49-106.08-236.49-236.48s106.09-236.48,236.49-236.48,236.48,106.08,236.48,236.48S1685.6,2002.61,1555.21,2002.61Zm0-433.8c-108.8,0-197.32,88.52-197.32,197.32s88.52,197.32,197.32,197.32,197.32-88.52,197.32-197.32S1664,1568.81,1555.21,1568.81Z" transform="translate(-724.22 -595.53)"/><path class="cls-26" d="M1806.14,2206.55c-88.9-1.13-85.52-109.37-83.07-138.1.39-4.41.73-7,.73-7l-37.89,15.72c-2-4.65-3.72-9.25-5.19-13.81a152,152,0,0,1-6.31-27c-11.07-79,48.51-135.21,99.72-144.76,35.54-6.6,65,1.62,86.35,25.31.88,1,1.76,2,2.55,3,16.59,19.92,28,49.79,32.89,89.83.49,3.67.93,7.44,1.28,11.26C1901.11,2063.45,1908.7,2207.87,1806.14,2206.55Z" transform="translate(-724.22 -595.53)"/><g class="cls-11"><path class="cls-12" d="M1895.92,2009.75c-8.27,3.48-16.54,6.9-24.82,10.38-13.07,5.48-26.23,11-40.09,14.15-12.63,2.88-25.65,3.81-38.28,7-14,3.47-27.12,9.64-40.39,15.32q-14.53,6.32-29.27,11.9c.39-4.41.73-7,.73-7l-37.89,15.72c-2-4.65-3.72-9.25-5.19-13.81a152,152,0,0,1-6.31-27c20.75-.78,39.21-4.36,55.8-20.07,14.59-13.8,23.85-33.19,40.73-44,16.26-10.33,36.82-10.87,54.59-18.21a76.62,76.62,0,0,0,37.5-34.22C1879.62,1939.84,1891,1969.71,1895.92,2009.75Z" transform="translate(-724.22 -595.53)"/></g><g class="cls-13"><path class="cls-14" d="M1860.48,1916.93c-39.75,1.42-79.45,8.18-111.42,30.94-32.6,23.26-51.94,60.22-62.27,98.11a107.55,107.55,0,0,1-6.07,17.42c-30.64-93,36.52-161.15,93.41-171.78C1809.67,1885,1839.14,1893.24,1860.48,1916.93Z" transform="translate(-724.22 -595.53)"/></g><path class="cls-12" d="M1807.54,2224.63h-1.63c-29.75-.38-53.73-10.93-71.25-31.36-25.69-29.94-30.54-74.56-30.52-104.05l-11.31,4.67a18.06,18.06,0,0,1-23.53-9.63c-25.46-59.93-12.53-106.6,2.8-135.2,20.51-38.28,59.26-67.78,98.71-75.16,34.74-6.49,64.51-.61,88.51,17.52,31.42,23.73,50.22,66.78,55.87,127.94h0c4.27,46.24,5.23,130.53-36.28,175.47C1860.63,2214.61,1836.63,2224.63,1807.54,2224.63Zm-83.72-181.17a18.05,18.05,0,0,1,17.89,20.58c-2.72,19.64-4.35,77,20.42,105.76,10.61,12.34,25.08,18.45,44.24,18.7,19.55.33,34.47-5.71,46-18.19,33.21-36,29.84-115.23,26.84-147.64h0c-4.61-49.9-19-85.32-41.67-102.43-15.54-11.75-35.76-15.39-60.09-10.84-29.11,5.45-58,27.71-73.51,56.71-10.16,19-18.83,48.65-7.46,87.17l20.44-8.45A18,18,0,0,1,1723.82,2043.46Z" transform="translate(-724.22 -595.53)"/><path class="cls-27" d="M1723.82,2061.52,1892.31,2002s-45.6,133.82-92,136-43-88.29-43-88.29" transform="translate(-724.22 -595.53)"/><path class="cls-12" d="M1798.68,2156.08a46.94,46.94,0,0,1-33.76-14c-16.91-16.77-22.82-45.85-24.8-67.18l-10.28,3.63a18.06,18.06,0,1,1-12-34.06l33.08-11.69.84-.3L1886.29,1985a18.07,18.07,0,0,1,23.11,22.86c-11.62,34.12-53.79,145.66-108.27,148.19C1800.31,2156.06,1799.49,2156.08,1798.68,2156.08Zm-23.18-93.66c.87,18.23,4.76,44,14.87,54a10.94,10.94,0,0,0,9.08,3.47c15.94-.74,41.92-41.93,61.81-87.8Z" transform="translate(-724.22 -595.53)"/><path class="cls-12" d="M1948.6,1862.2a19.55,19.55,0,0,1-15-7c-60-71.89-153.73-53.62-157.69-52.8a19.58,19.58,0,0,1-8-38.33c4.87-1,120.44-24.24,195.79,66a19.58,19.58,0,0,1-15,32.13Z" transform="translate(-724.22 -595.53)"/><path class="cls-12" d="M1503.38,2357.49c5.13,10.13,10.9,19,17.47,25.49s13.71,9.68,20.72,10.56,15-.39,23.37-2.65a199.88,199.88,0,0,0,25.92-10l1-.44a17.58,17.58,0,0,1,24.79,15.6c0,.92.33,3.17.5,4.89s.48,3.75.86,5.63c.71,3.75,1.52,7.5,2.58,11.15a88.15,88.15,0,0,0,8.68,20.67,78.22,78.22,0,0,0,6.5,9.33c2.7,2.62,5.24,5.88,8.61,8.23,6.29,5.59,14.34,9.33,23.23,13.89-9.29,2.7-19.77,3.9-30.07,1.34a33.81,33.81,0,0,1-7.71-2.2c-2.49-1-5.1-2-7.53-3.21-2.32-1.4-4.71-2.81-7-4.33a74.33,74.33,0,0,1-6.46-5.21,82.3,82.3,0,0,1-19.25-26.46,92.31,92.31,0,0,1-5.59-15.13c-.76-2.57-1.34-5.22-1.92-7.87a75.76,75.76,0,0,1-1.21-8.76l25.77,15.15-8,3.76c-2.7,1.18-5.56,2.16-8.33,3.24s-5.78,1.92-8.69,2.78-6.08,1.39-9.1,2.06c-12.37,2.12-26.5,2.27-39.88-3.4a51.05,51.05,0,0,1-17.39-12.11,51.59,51.59,0,0,1-10.34-16.89A57.23,57.23,0,0,1,1503.38,2357.49Z" transform="translate(-724.22 -595.53)"/><path class="cls-12" d="M1522.13,2199.29c24.49,19.06,48.29,36.92,72.56,53.72a779.91,779.91,0,0,0,74.38,45.89,573,573,0,0,0,79.16,35.35c27.41,10.09,56,17.15,86.29,24.37-30.11,7.88-62.25,8.49-93.35,3.14a289.53,289.53,0,0,1-89.21-31.05,329.93,329.93,0,0,1-75.42-56C1554.57,2252.62,1535,2227.81,1522.13,2199.29Z" transform="translate(-724.22 -595.53)"/><path class="cls-12" d="M2445.18,1937.72a19.59,19.59,0,0,1-5-38.52l196-51.9c5.52-1.61,40.35-10.67,71.55,6.88,19.47,11,32.66,29.37,39.18,54.74a19.58,19.58,0,1,1-37.93,9.76c-3.81-14.84-10.5-24.77-20.45-30.36-17.65-9.93-41.17-3.49-41.39-3.42l-.66.18-196.25,52A19.42,19.42,0,0,1,2445.18,1937.72Z" transform="translate(-724.22 -595.53)"/><path class="cls-10" d="M1808.54,1270.93l-6.17,4.85-2.89,2.3-100.16,78.67-129.53,101.78-19.14,15-6,4.74-2.11,1.67c-2.64-1.32-5.23-2.69-7.78-4,0,0,0,0-.1,0-1.91-1-3.82-2-5.72-3-183.34-97.91-233.08-216.57-214.13-254.71a25.64,25.64,0,0,1,3.77-5.58,18.51,18.51,0,0,1,8.71-5.24,29.84,29.84,0,0,1,9.11-1.12c8.76.09,19.29,3,30.45,7.68,37,15.23,81.21,48.56,92.72,57.52a184.06,184.06,0,0,1-23.84-23.79c-53.36-62.27-105-180.39-68.29-204.68a22,22,0,0,1,5.43-2.74l1.91-.58c42.49-11.22,128,81.31,165.56,125.07,3.38,4,6.37,7.49,8.91,10.53a229.37,229.37,0,0,1-15.27-25.41c-24-45.62-45.87-113.82-37-140.94,1.76-5.28,4.65-9,8.91-10.72a12.75,12.75,0,0,1,1.27-.44c33.73-11,77,77.35,154.79,149.7,21.4,19.93,42,38.14,60.61,54C1772.56,1244.3,1808.54,1270.93,1808.54,1270.93Z" transform="translate(-724.22 -595.53)"/><g class="cls-13"><path class="cls-14" d="M1465.67,1280.43c-28.59,8.27-59-3.08-85.48-16.59-20.9-10.68-41.22-22.92-58.35-38.92-2.11-2-4.5-4.26-7-6.76a25.64,25.64,0,0,1,3.77-5.58,18.51,18.51,0,0,1,8.71-5.24,29.84,29.84,0,0,1,9.11-1.12c8.76.09,19.29,3,30.45,7.68,37,15.23,81.21,48.56,92.72,57.52a184.06,184.06,0,0,1-23.84-23.79l11.3,10.72C1454.06,1265,1461.26,1271.82,1465.67,1280.43Z" transform="translate(-724.22 -595.53)"/></g><g class="cls-13"><path class="cls-14" d="M1547.52,1175.13c-48.12-7-89-37.74-127.09-68-8.32-6.65-16.64-13.31-24-21-11.84-12.43-21.34-27.51-29-43.18a22,22,0,0,1,5.43-2.74l1.91-.58c42.49-11.22,128,81.31,165.56,125.07Z" transform="translate(-724.22 -595.53)"/></g><g class="cls-13"><path class="cls-14" d="M1805,1278c-1.86.1-3.67.1-5.54,0-17.47-.73-34-9.4-49.24-18.31-29.82-17.52-58.21-37.25-86.41-57.27-29.86-21.15-59.92-43-82.49-71.82-12.87-16.5-23-34.9-33.14-53.26-12-21.93-24.08-43.82-34.8-66.43-2.06-4.36-4.16-8.77-6.27-13.27,33.73-11,77,77.35,154.79,149.7,21.4,19.93,42,38.14,60.61,54,18.11,21.15,39.6,39.75,60.8,58,6.36,5.48,12.68,10.92,19,16.35C1803.25,1276.51,1804.14,1277.3,1805,1278Z" transform="translate(-724.22 -595.53)"/></g><g class="cls-11"><path class="cls-12" d="M1738.24,1388.52c-31.13,29.57-70.34,49.3-110.24,65.31-23,9.25-46.66,17.47-71.33,19.38-2,.15-4,.25-6,.35a179.3,179.3,0,0,1-21.73-.69c-193.47-103.29-238.17-229.74-210.36-260.29a18.51,18.51,0,0,1,8.71-5.24c6.71,9.84,13.22,19.88,19.58,29.33,6.86,10.13,12.59,21.1,20.52,30.4,10,11.84,23.15,20.51,36.08,29.08,26.28,17.33,52.72,34.7,81.41,47.73,66.72,30.15,144.61,34.75,214.46,12.87,4.31-1.32,8.57-2.79,12.78-4.31,12.58-4.6,29.47-8.86,37.21,2.11C1756.75,1365.22,1747.69,1379.51,1738.24,1388.52Z" transform="translate(-724.22 -595.53)"/></g><g class="cls-11"><path class="cls-12" d="M1628.05,1191.53c-16.79-7.2-36.77-2-53.75-8.57-7.54-2.89-14-8-20.17-13.21-7.25-6.07-14.2-12.44-21-19.15-24-45.62-45.87-113.81-37-140.93a331.59,331.59,0,0,0,16.8,42.83C1539.24,1107.28,1578.85,1155.74,1628.05,1191.53Z" transform="translate(-724.22 -595.53)"/></g><g class="cls-11"><path class="cls-12" d="M1540.62,1297.32c-2.75,3.43-7.84,3.43-12.19,3-48.08-5-90.47-32.8-129.68-61-11-7.88-22-16.06-32.71-24.57,37,15.22,81.22,48.56,92.72,57.52-62-50.33-140.15-212.51-86.69-231.21l1.91-.59c7.49,19.34,14.88,38.77,24.86,57.32,36.08,67.17,85.33,126.26,136.83,182.46C1540.08,1285,1544.68,1292.23,1540.62,1297.32Z" transform="translate(-724.22 -595.53)"/></g><path class="cls-12" d="M1803.87,1277c-25.46-9.65-47.81-23.49-69.06-38.75-21-15.57-41.33-32-60.69-49.58-9.67-8.83-19.13-17.71-28.58-26.94-9.64-9.41-18.85-19.15-27.77-29-17.86-19.74-34.65-40.09-50.93-60.18-8.15-10-16.21-19.92-24.34-29.25-8-9.1-16.63-18.21-24.14-23.21a16.22,16.22,0,0,0-6.15-2.88c.07.07.11-.07.14,0a.09.09,0,0,0,0-.06,4,4,0,0,0,.54-.15,2.74,2.74,0,0,0,1-.72c.66-.17,1-1.13,1.13-1s.07-.33,0-.15a1.21,1.21,0,0,1-.14.43c-.73,1.55-1.35,6.58-1.12,11.6a117.32,117.32,0,0,0,1.8,16.49c4.1,23.05,12.13,46.94,21.64,69.63a347.8,347.8,0,0,0,15.9,33.09c2.89,5.3,5.95,10.41,9.13,15.15a85.09,85.09,0,0,0,9.58,12.26l-29.17,26c-26.4-32.39-55.17-64.28-85.62-92.55-15.29-14-31.24-27.4-47.66-37.31-8.09-4.91-16.55-8.85-23.3-10.29-3.15-.48-6-.73-7-.16a4.93,4.93,0,0,1-.55,0,1.19,1.19,0,0,1-.34.26c-.16.2-.67.06-.69.32a.56.56,0,0,1-.48.28,1.05,1.05,0,0,1-.42.6c-1.51,1.73-3.42,9.43-2.54,18.08a139.51,139.51,0,0,0,5.26,27.6c5.48,19,13.53,38,22.85,56.25a409.3,409.3,0,0,0,31.91,52.65c11.86,16.38,25.17,32.33,39.43,43.34l-24.09,30.87a593.83,593.83,0,0,0-53.13-37.15c-9.14-5.6-18.42-10.83-27.69-15.34s-18.71-8.23-26.85-9.92a24.86,24.86,0,0,0-9.1-.59c-.76.13-.81.32-.68.13s.32-.05.27-.27a.68.68,0,0,1-.36.47c-.69,1-1.6,3.77-1.86,7.27a47.68,47.68,0,0,0,.57,12c2.78,17.75,11.83,36.85,22.69,54.31a316.71,316.71,0,0,0,39.26,49.58,388.77,388.77,0,0,0,48,43c17.4,12.88,35.79,24.32,53.39,37.19s35.22,26,50.74,44.48l0,.07a7.05,7.05,0,0,1-6,11.56c-24.36-2-46-10.8-66.31-21.84s-38.9-25.16-56.68-40.11c-35.74-29.59-70-62.26-95.66-103.11-12.57-20.56-23.83-42.57-28.24-69.28a85.46,85.46,0,0,1-.84-21.48c.73-7.6,2.41-16,7.76-24.63a75.09,75.09,0,0,1,4.77-6.19,50.45,50.45,0,0,1,6.7-5.66,41.82,41.82,0,0,1,14.87-6,61.88,61.88,0,0,1,24.31.62c13.83,2.94,25.24,7.82,36.2,13.06s21.17,11.12,31.15,17.23a628.32,628.32,0,0,1,57.09,39.94l0,0a19.58,19.58,0,0,1-24.12,30.85c-19.84-15.49-34.08-33.31-47.52-51.64a449.56,449.56,0,0,1-35-57.73c-10.19-20.07-19.12-40.87-25.61-63.3a176.49,176.49,0,0,1-6.68-35.77c-.29-3.16-.18-6.62-.24-9.91a93.63,93.63,0,0,1,1-10.65,54.14,54.14,0,0,1,9.34-23.36c1.52-1.92,3.13-3.79,4.79-5.58,1.9-1.62,3.88-3.18,5.92-4.64s4.23-2.36,6.41-3.46l3.31-1.45,3.38-.91c9.33-2.65,17.56-1.64,24.93-.4,14.36,3.16,25.42,9,35.76,15.12,20.46,12.44,37.49,27.06,54,42.07,16.34,15.12,31.75,30.86,46.6,47s29.08,32.56,43.13,50a19.57,19.57,0,0,1-29.09,26.11l-.08-.08a120,120,0,0,1-14.41-18.14c-4-6-7.6-12-10.91-18a388.32,388.32,0,0,1-17.68-36.79c-10.4-25-19.14-50.36-24.17-78.25a156.54,156.54,0,0,1-2.34-22c-.08-7.83-.15-16,3.68-26.63.55-1.36,1.13-2.71,1.73-4a37.43,37.43,0,0,1,2.56-4.28c1.64-2.78,4.66-5.7,7.58-8.17a43,43,0,0,1,5.2-3.14,27.94,27.94,0,0,1,2.68-1.28l2.32-.76a37.47,37.47,0,0,1,9.62-1.82,43,43,0,0,1,17.39,2.83,55.62,55.62,0,0,1,6.8,3.05c2,1.11,3.9,2.27,5.77,3.45,13.93,9.59,22.8,19.93,32,30,8.86,10.16,17.12,20.34,25.27,30.37,16.3,20.06,32.3,39.74,49.64,57.9q13,13.61,26.81,26.06l28.65,25.4c37.81,34.57,77.39,66.69,109.31,109.32l.07.09a6.78,6.78,0,0,1-1.37,9.49A6.86,6.86,0,0,1,1803.87,1277Z" transform="translate(-724.22 -595.53)"/><path class="cls-28" d="M2137.56,2468.79l-.49,7.4-54.39,788.26c-228,93.25-627,139.76-627,139.76-132.81,57.91-169.09-95.07-169.09-95.07l-204.33-217.75,34-770.14,178.68,186.27,40.39,42.1c76.81-21.4,133,20.75,133,20.75Z" transform="translate(-724.22 -595.53)"/><g class="cls-11"><path class="cls-12" d="M2137.07,2476.19l-54.39,788.26c-228,93.25-627,139.76-627,139.76-132.81,57.91-169.09-95.07-169.09-95.07l-204.33-217.75,34-770.14,178.68,186.27a247.36,247.36,0,0,1-14.09,74.31c-11.31,31.33-34.37,63.3-67.61,65.84,31.33,20,49.74,62,35.54,96.3s-65,49.54-91.59,23.59a151.26,151.26,0,0,0,55.07,84c-27.9,46.65-45.14,103.44-29.86,155.62s71.52,94,123.8,79.21c13.91,28.44,56.15,31.72,82.88,14.64s41.47-47.24,54.93-75.93l68.14-144.86c19-40.29,38.33-81.26,68.39-114.11,78.13-85.33,205.9-96.1,314.93-134.72A588.55,588.55,0,0,0,2044,2553.19C2068.29,2535.62,2103.1,2492.19,2137.07,2476.19Z" transform="translate(-724.22 -595.53)"/></g><path class="cls-12" d="M1399.23,3436.94a112.81,112.81,0,0,1-51.1-11.93c-52.39-26.17-73.78-87.43-79.2-106l-201-214.22a19.58,19.58,0,0,1-5.28-14.26l34-770.13a19.58,19.58,0,0,1,33.69-12.69l211.25,220.22c63.88-13.54,113.21,11,131.17,22l661.82-100.46a19.59,19.59,0,0,1,22.48,20.71l-54.88,795.65a19.61,19.61,0,0,1-12.13,16.78c-220.26,90.1-590.21,136.06-629.36,140.73C1439.13,3432.4,1418.59,3436.94,1399.23,3436.94ZM1102.12,3084l198.7,211.75a19.56,19.56,0,0,1,4.78,8.88c.14.59,15.78,63.34,60.19,85.4,22.73,11.3,50.32,10,82-3.79a19.59,19.59,0,0,1,5.56-1.5c3.9-.45,386-45.72,610.64-133.9l52.36-759-645.09,97.92a19.61,19.61,0,0,1-14.68-3.7c-1.94-1.42-50-36-116-17.56a19.58,19.58,0,0,1-19.38-5.31l-187.39-195.35Z" transform="translate(-724.22 -595.53)"/><path class="cls-14" d="M1139.48,2345.49l88.23-39,201.83,188.28,584.9-91.26,80.62,68.58-626.75,98.31s-57.54-42.85-133-20.76Z" transform="translate(-724.22 -595.53)"/><path class="cls-12" d="M1468.31,2585.88a15.42,15.42,0,0,1-9.24-3.07c-2.08-1.52-52.69-37.85-119.42-18.32a15.47,15.47,0,0,1-15.52-4.14l-195.82-204.14a15.48,15.48,0,0,1,4.91-24.88l88.22-39a15.5,15.5,0,0,1,16.83,2.83l196.32,183.15,577.47-90.09a15.39,15.39,0,0,1,12.41,3.5l80.62,68.57a15.48,15.48,0,0,1-7.63,27.09l-626.75,98.32A14.84,14.84,0,0,1,1468.31,2585.88Zm-89-58.1a179.11,179.11,0,0,1,92.61,26.38L2059.33,2462l-49.51-42.11-577.89,90.16a15.48,15.48,0,0,1-13-4l-194.36-181.31L1166,2350.71l174.22,181.63A170.2,170.2,0,0,1,1379.27,2527.78Z" transform="translate(-724.22 -595.53)"/><path class="cls-12" d="M1325.94,2599.64c2.85,54.52,3.5,109,3.72,163.45-.08,54.46-.65,108.9-2.18,163.33-.68,27.21-1.35,54.43-2.39,81.63l-1.42,40.82-1.77,40.8c-2.49,54.41-5.37,108.8-9.77,163.17a4.31,4.31,0,0,1-8.6-.18c-2.1-54.51-2.68-109-2.86-163.44l-.05-40.84.3-40.84c.12-27.22.59-54.44,1.07-81.66.77-54.44,2.5-108.86,4.72-163.27,2.52-54.4,5.47-108.8,10.63-163.15a4.31,4.31,0,0,1,8.6.18Z" transform="translate(-724.22 -595.53)"/><path class="cls-12" d="M1459.89,2624.51c2.63,60.51,3,121,3,181.41-.31,60.44-1.11,120.87-2.86,181.28-.79,30.21-1.58,60.41-2.74,90.61l-1.59,45.3-2,45.29c-2.71,60.39-5.82,120.77-10.45,181.11a4.31,4.31,0,0,1-8.6-.2c-1.87-60.49-2.22-120.95-2.18-181.39l.13-45.34.47-45.32c.23-30.22.82-60.43,1.41-90.64,1-60.43,3-120.83,5.42-181.22,2.75-60.39,5.93-120.76,11.31-181.09a4.31,4.31,0,0,1,8.6.2Z" transform="translate(-724.22 -595.53)"/><path class="cls-12" d="M2057.41,2450.52l-552.71,74.73,548.9-98.9a12.24,12.24,0,0,1,4.35,24.09Z" transform="translate(-724.22 -595.53)"/><path class="cls-12" d="M1189.72,2314.58l173.38,190.2-190.66-172.87a12.25,12.25,0,1,1,16.46-18.16C1189.18,2314,1189.47,2314.3,1189.72,2314.58Z" transform="translate(-724.22 -595.53)"/><path class="cls-10" d="M2654.08,2643.12c-26.78,90-83.71,183.63-154.16,236-168.5,125.22-394.18,181.67-607.47,179.76s-93.06-130.61-93.06-130.61-126.89,57.37-162.73,9.69c-34.85-46.46,60.85-117.93,65.94-121.65-6,3.18-145.24,77.3-171.48,5.43-3.14-8.56-3.28-18.21-.74-28.63,5.73-24.09,25.61-52.24,55.08-80.53l0-.05c67.36-64.72,185.09-130.07,300.67-148.77,167.43-27.08,287.12,61.43,407.45,36.37,67.7-14.15,100.89-35.35,116.95-51.21l.15-.14c8.12-8,11.84-14.69,13.41-18.31a18.16,18.16,0,0,0,1.08-2.94l1.42-1.42L2546,2408.29c1.37-.1,2.69-.2,4-.25,56.89-2.89,91.45,21.64,108.19,61.34C2677.09,2513.93,2673.56,2577.57,2654.08,2643.12Z" transform="translate(-724.22 -595.53)"/><g class="cls-13"><path class="cls-14" d="M2654.08,2643.12c5.53-43.32-.15-88.17-15-129.34-7.54-20.75-17.53-41-32.56-57.08-9.2-9.89-20.12-18-31-26.09-6.17-4.6-21.3-11.9-24.68-18.75a7.38,7.38,0,0,1-.78-3.82c56.89-2.89,91.45,21.64,108.19,61.34C2677.09,2513.93,2673.56,2577.57,2654.08,2643.12Z" transform="translate(-724.22 -595.53)"/></g><g class="cls-11"><path class="cls-12" d="M2499.92,2879.08c-168.5,125.22-394.18,181.67-607.47,179.76-169.82-1.52-128.21-83.42-104.18-116.76-14,3.67-28.24,6-42.63,5.24-39.12,10.92-88.66,17.62-109-9.4-34.85-46.46,60.85-117.93,65.94-121.65-1,.54-5.58,3-12.72,6.36-11.65,8.82-22.82,18.36-35.69,25.07a91.65,91.65,0,0,1-70.89,5.24c-23.64-.15-43.71-8.13-52.18-31.24-3.87-10.57-3.18-22.81,1.47-36.12-.74-10,.83-19.49,5.92-26.78,4.9-7,8.32-8.37,12.43-7.1,9.06-12.78,20.76-25.95,34.52-39.16-10.28,23.94-11.16,41.27-5.53,53.5a55.36,55.36,0,0,0,27.85,3.14c37.6-5.14,69.42-29.08,102-48.61,141-84.45,326.13-89.84,471.87-13.71-60.21-13.07-132.43-17.27-192.84-5.37s-112.25,31.87-167.81,59.85c-16.92,8.53-31.11,17.76-53,28.79-26.75,15.21-31.19,24.57-39.12,38.09,8.72,11,21.2,16.93,34.27,21.34,30.7,10.38,115.53,8.76,169-12.73,87.53-35.2,154.21-62.95,274.83-64-107.36,38.82-217.16,78.72-318.4,135.75,31,15.42,154.16,57.72,431.68-50.77,262.3-102.56,323.83-310,337.93-388.4C2703,2575.17,2621.67,2788.61,2499.92,2879.08Z" transform="translate(-724.22 -595.53)"/></g><g class="cls-13"><path class="cls-14" d="M2293.63,2600.09c67.7-14.15,100.89-35.35,116.95-51.21-11.65,13.51-25.46,24.92-37.45,32.12-32.26,19.48-69.86,27.85-106.72,35.93-33.14,7.24-66.61,16.46-100.5,14.93-84.52-3.8-142.7-31.11-210.65-30-34.27.54-93.89,13.62-126.93,22.58-121,32.8-204.88,86.12-297.95,168.66,5.73-24.09,25.61-52.24,55.08-80.53l0-.05c67.36-64.72,185.09-130.07,300.67-148.77C2053.61,2536.64,2173.3,2625.15,2293.63,2600.09Z" transform="translate(-724.22 -595.53)"/></g><path class="cls-12" d="M2431.59,2529a38.79,38.79,0,0,1-1.56,6.19c-.66,1.73-1.29,3.58-2.09,5.22a88.13,88.13,0,0,1-5.38,9.55,105.88,105.88,0,0,1-13.85,16.21,159.72,159.72,0,0,1-33.65,24.26c-23.95,13.4-49.6,22-75.38,28.27-27.13,6.23-55.39,7.53-82.34,5.13-27.11-2.16-53-7.83-78.13-13.71s-49.75-12.54-74.21-17.86c-12.25-2.95-24.47-4.9-36.69-7.25l-18.32-2.65-9.16-1.29-9.17-.81c-24.45-2.95-48.86-2.1-73.15-.8l-18.1,2.24c-6,.72-12.08,1.37-18.1,2.62-6,1.05-12,2.18-18,3.59l-9,2-8.94,2.31c-47.63,12.43-93.85,31.57-137.3,55.44a600.85,600.85,0,0,0-62.65,39.75c-19.93,14.49-38.93,30.24-55.69,47.55a232.54,232.54,0,0,0-23,27c-6.75,9.33-12.61,19.12-16.1,28.63s-4.13,18.24-2.16,24.19c1.56,3.63,3.21,7.13,5.61,9.44a26.68,26.68,0,0,0,8.84,5.9A52.17,52.17,0,0,0,1577,2833a90.85,90.85,0,0,0,15.7-.13c10.93-.87,22.41-3.44,33.81-6.68a331,331,0,0,0,34.09-12c11.13-4.61,22.66-9.91,32.81-15.3a19.6,19.6,0,0,1,21,32.91l-.16.12c-19.48,14.81-39.13,33.09-52.74,52.21-6.67,9.52-11.77,19.78-12.71,27.84a19.27,19.27,0,0,0,1.13,10c.42.69.59,1.45,1.07,2.16s.92,1.46,1.42,2.14a20.12,20.12,0,0,1,1.65,1.92c.67.54,1.34,1.09,2,1.69,5.53,4.35,15.53,7,26.79,7.3s23.52-1.1,35.75-3.52a321.9,321.9,0,0,0,36.85-9.76c12.11-3.94,24.66-8.62,35.83-13.51a19.63,19.63,0,0,1,22.42,31.17l0,0c-1.76,1.94-4.21,4.9-6.23,7.5s-4.14,5.5-6,8.34a124.21,124.21,0,0,0-9.9,17.33c-5.5,11.63-7.72,23.39-5.34,31.17,1.06,4,3.3,7.36,6.83,10.72l1.25,1.29,1.6,1.17c1.1.76,2,1.62,3.21,2.37,2.62,1.34,4.78,3,7.8,4.16,11.23,5.16,24.95,8.33,39,10.41a362.26,362.26,0,0,0,43.62,3.11c15,.07,30.27-.09,45.38-.35,30.29-1.09,60.58-2.81,90.7-6.21a1112.84,1112.84,0,0,0,178.32-33.82,933.35,933.35,0,0,0,168.84-64.87c6.7-3.44,13.53-6.65,20.13-10.27l19.67-11.08c13.3-7.08,25.7-15.6,38.51-23.47,6.47-3.85,12.44-8.41,18.62-12.67l18.43-13a305.22,305.22,0,0,0,32.76-28.43,412.91,412.91,0,0,0,55-68.82,511.13,511.13,0,0,0,41.46-78.68c11.48-27.36,20.79-55.68,26.64-84.45s7.83-58.11,4.65-85.71-11.46-53.24-28.59-70.58c-8.39-8.85-19.08-15.76-31.62-21s-26.81-8.28-41.91-11l-.17,0a6.69,6.69,0,0,1-.76-13,118.55,118.55,0,0,1,50-4.28,99.44,99.44,0,0,1,49.66,21.09,101.15,101.15,0,0,1,19.1,20.24,124.47,124.47,0,0,1,13.52,23.68,166.18,166.18,0,0,1,12.47,50.5c3.1,33.85-1.27,66.54-7.85,98.1a505.79,505.79,0,0,1-29,91.64,550,550,0,0,1-44.67,84.74,451.89,451.89,0,0,1-60.29,75.32,343,343,0,0,1-37,32.12l-19.4,13.65c-6.5,4.48-12.82,9.27-19.6,13.33-13.44,8.28-26.52,17.21-40.44,24.65l-20.62,11.61c-6.91,3.79-14,7.15-21.05,10.75a973.35,973.35,0,0,1-175.9,67.6,1154.61,1154.61,0,0,1-184.69,35.05c-31.16,3.5-62.47,5.29-93.78,6.41-15.7.27-31.26.44-47.09.36a401.78,401.78,0,0,1-48.56-3.5c-16.4-2.5-33.1-6-50-13.69-4.2-1.65-8.4-4.44-12.54-6.78-2.06-1.32-4.09-2.95-6.11-4.44l-3-2.33-2.86-2.77c-7.62-7.17-14.29-17.1-17.26-28.07a70.59,70.59,0,0,1-1.24-31.67,109.15,109.15,0,0,1,8.68-26.77,164.92,164.92,0,0,1,13-22.79c2.38-3.58,4.92-7,7.52-10.4s5.15-6.49,8.57-10.25l22.38,31.21c-13.55,5.92-26.34,10.64-39.88,15.07a359.77,359.77,0,0,1-41.37,10.93c-14.21,2.78-28.92,4.7-44.65,4.24a104.68,104.68,0,0,1-24.45-3.46,70.71,70.71,0,0,1-25.06-12.06c-1.91-1.62-3.81-3.26-5.65-5-1.7-1.87-3.37-3.78-5-5.73s-2.83-4.15-4.19-6.27a71.34,71.34,0,0,1-3.41-6.9,58.52,58.52,0,0,1-3.81-29.71,84,84,0,0,1,7.57-25.16,138.63,138.63,0,0,1,12-20.41,241.66,241.66,0,0,1,28.91-33.28q7.74-7.52,15.86-14.47c5.51-4.7,10.75-9,17-13.65l20.9,33c-12.43,6.59-24.18,11.94-36.65,17.13a365.86,365.86,0,0,1-38.19,13.45c-13.17,3.73-26.74,6.85-41.31,8.07s-30.28.85-46.75-5.48a66.09,66.09,0,0,1-22.68-15.35c-6.66-6.85-10.83-15-14-23.18q-1-3.41-1.87-6.87c-.28-1.14-.6-2.3-.81-3.45l-.34-3.4-.51-6.84c0-2.19.23-4.33.38-6.5.6-8.69,2.86-16.43,5.43-23.75,5.39-14.5,13-26.74,21.14-38.11a270.12,270.12,0,0,1,26.63-31.33c18.82-19.42,39.37-36.38,60.76-51.94a639.8,639.8,0,0,1,66.75-42.37c46.13-25.32,95.08-45.65,146.39-59l9.63-2.49,9.73-2.16c6.46-1.51,13-2.75,19.56-3.9,6.52-1.34,13.18-2.08,19.84-2.89l20-2.43c26.7-1.61,53.57-2.11,80,.59l9.94.78,9.83,1.26,19.66,2.62c12.91,2.27,25.94,4.37,38.64,7.07,25.59,5,50.62,11.05,75.24,16.46,49.28,11.17,97.11,19.53,143,11.29,24.15-4.43,48.06-9.79,70.47-18.08l8.38-3.17c2.69-1.2,5.35-2.44,8.1-3.58s5.29-2.54,7.94-3.86a85.43,85.43,0,0,0,7.62-4.29,103.35,103.35,0,0,0,14.14-9.9,77.49,77.49,0,0,0,6-5.85c1-1,1.75-2.05,2.66-3.09.72-.94,1.61-2.36,2-2.7l3-2.53a5.95,5.95,0,0,1,9.7,5.54Z" transform="translate(-724.22 -595.53)"/><path class="cls-12" d="M1691,2800.49c9.27-6.15,17.84-11.19,26.86-16.39s18-10,27.05-14.72q27.32-14.1,55.5-26.07a726.77,726.77,0,0,1,115.92-38.44,576.65,576.65,0,0,1,59.91-11.16,498.4,498.4,0,0,1,60.61-4.62,439.06,439.06,0,0,1,119.67,14,434,434,0,0,0-119.11-4.21,484.46,484.46,0,0,0-58.64,9.31,556.78,556.78,0,0,0-57.15,15.54A701.59,701.59,0,0,0,1813,2769.87q-26.13,13.68-51.08,29.29c-8.3,5.2-16.51,10.53-24.53,16.05s-16.16,11.32-23.16,16.84l-.21.17a19.6,19.6,0,0,1-24.29-30.78C1690.12,2801.11,1690.58,2800.78,1691,2800.49Z" transform="translate(-724.22 -595.53)"/><path class="cls-12" d="M1781.45,2915.34c30.06-12.45,60-24.12,90.17-35.55s60.44-22.42,91-32.8,61.11-20.42,92.07-29.34,62.1-17.11,93.6-23.31c-30.71,9.37-60.7,20.64-90.39,32.56s-58.93,25-88,38.27-57.85,27.31-86.47,41.54-57.12,28.92-85,43.94l-.11.07a19.61,19.61,0,1,1-18.61-34.53C1780.23,2915.88,1780.85,2915.59,1781.45,2915.34Z" transform="translate(-724.22 -595.53)"/><path class="cls-29" d="M2822.48,2975.76c-3,52.29-91.69,112-197.63,156.12-122.38,51-168.16,237.62-270.47,212.46-19.68-4.85-34.61-18.46-45.67-38.28-11.17-20.17-18.26-46.8-22-77.2-7.93-64.13-1.13-145.05,13-217.41q3.82-19.53,8.13-37.3c18.5-76.37,43.57-128.9,68.24-162.73,25.16-34.56,49.88-49.59,66.62-50.66a23.1,23.1,0,0,1,11.07,1.81c12.14,5.63,16.35,19.82,15.66,38.33-1.37,40.44-26.19,101.24-42.15,136.53-.73,1.62-1.46,3.18-2.1,4.7a.69.69,0,0,1-.15.2c-4.11,9-7.44,15.81-9.35,19.68,0,.1,0,.14-.1.24-.44.83-.78,1.52-1,2.06,1-1.72,2-3.48,3-5.24,3-5.09,6.37-10.33,10-15.71.73-1.08,1.47-2.16,2.25-3.24,1.61-2.35,3.33-4.69,5-7,0,0,0-.1.1-.15,65.11-88.8,201.54-200.27,247.9-156,.79.74,1.52,1.52,2.26,2.35,9.3,10.62,11.06,25.36,7.78,42.25a103.42,103.42,0,0,1-3,11.75c-18.94,62.17-92.42,145.69-114,169.23-2.55,2.74-4.36,4.7-5.29,5.68a146.52,146.52,0,0,1,11.21-10.33.69.69,0,0,0,.2-.15c4.4-3.67,9.25-7.29,14.49-10.91.09-.05.19-.15.29-.2,67.36-46.41,193.42-83.51,220-35.73a12.08,12.08,0,0,1,.64,1.07A45.37,45.37,0,0,1,2822.48,2975.76Z" transform="translate(-724.22 -595.53)"/><g class="cls-13"><path class="cls-14" d="M2822.48,2975.76c-29.91-10.33-62.61-13.17-94.33-11.11-38.87,0-79.11,12.78-116.32,22.67-4.89,1.32-13.17,5.23-15.27-.54.09-.05.19-.15.29-.2,67.36-46.41,193.42-83.51,220-35.73a12.08,12.08,0,0,1,.64,1.07A45.37,45.37,0,0,1,2822.48,2975.76Z" transform="translate(-724.22 -595.53)"/></g><g class="cls-13"><path class="cls-14" d="M2698.06,2811.19a101.87,101.87,0,0,1-3,11.75c-9.59-5.49-21.14-7.79-32.26-7.45-16.1.44-31.57,5.88-46.45,12a529,529,0,0,0-71.82,36.91c-20.46,12.38-40.19,25.9-59.53,39.95-7.15,5.14-41.81,38.52-50.72,33.29-1.61-1,.84-6.61,5.73-14.89.05-.05.05-.09.1-.14,65.11-88.81,201.54-200.28,247.9-156,.79.73,1.52,1.52,2.26,2.35C2699.58,2779.56,2701.34,2794.3,2698.06,2811.19Z" transform="translate(-724.22 -595.53)"/></g><g class="cls-13"><path class="cls-14" d="M2469.37,2800.9c-25.4,16.06-63.73,43.72-68.24,47.68a373.07,373.07,0,0,0-64,73.77c-4.5,6.86-17.33,37.36-29.32,51.8,18.5-76.37,43.57-128.9,68.24-162.73,25.16-34.56,49.88-49.59,66.62-50.66a23.1,23.1,0,0,1,11.07,1.81C2465.85,2768.2,2470.06,2782.39,2469.37,2800.9Z" transform="translate(-724.22 -595.53)"/></g><g class="cls-11"><path class="cls-12" d="M2817.44,2951.92a12.08,12.08,0,0,0-.64-1.07,398.4,398.4,0,0,1-45.43,44.49c-39.6,32.56-86.16,54.3-133.06,75.69a424.21,424.21,0,0,0-77.83,29.57c-11.8,5.82-27.12,11.89-36.82,3-10.08-9.2-4.6-25.94,2.6-37.55,18.75-30.3,44.11-55.31,70.59-79.5-5.34,3.67-10.28,7.39-14.78,11.11a.69.69,0,0,1-.2.15,146.52,146.52,0,0,0-11.21,10.33c.93-1,2.74-2.94,5.29-5.68,22.91-25.06,104.76-118.12,117-181q-46.79,49.48-97.76,94.68c-34.86,30.89-73,61.09-118.52,71.13-9.45,2.1-19.78,3.18-28.54-1-15.13-7.15-19.24-25.75-20.51-43-.15-2-.25-4-.35-5.93a24.91,24.91,0,0,1-2.1,4.7.69.69,0,0,1-.15.2c-8.47,14.83-29.76,21.54-44.79,12.87-10.92-6.26-17.28-18.26-20.95-30.3-6-19.78-6-40.58-2.21-60.75,3.33-18.07,14.4-35.3,19-52.73-28.49,39.07-57.52,103.1-76.37,200-14.1,72.36-20.9,153.28-13,217.41.68,5.68,1.51,11.26,2.44,16.69.64,3.52,1.33,7,2,10.38,4.11,19.19,9.89,36.22,17.58,50.13,11.06,19.82,26,33.43,45.67,38.28,102.31,25.16,148.09-161.45,270.47-212.46S2846.66,3009.1,2817.44,2951.92ZM2467,3191.55a399.55,399.55,0,0,1-39.55,59.57c-9.06,11.26-22,23.16-36,19.39-9.74-2.6-16.1-12.58-17.42-22.57s1.47-20.07,4.65-29.66c10.13-30.55,24.82-60.12,46.85-83.62,13.41-14.29,45.52-32.26,58.45-6C2492.44,3145.73,2475,3177,2467,3191.55Z" transform="translate(-724.22 -595.53)"/></g><path class="cls-12" d="M2373.73,3366.36a100,100,0,0,1-24-3h0c-97.53-24-98.28-206.58-69.3-355.6C2318.5,2811.93,2393.09,2760.18,2415,2749c17.21-8.78,33.87-10.27,46.94-4.19,10.94,5.09,19,14.35,23.27,26.79,6.95,20.16,3.29,49.39-4.76,79.56,52.88-52.24,117.1-98.09,165.62-103.32,28.38-3.08,44.88,8.39,53.76,18.53,34,38.8-.74,108.61-41.55,166.33,43.32-17.21,90-27.41,124.55-22.44,31.46,4.53,45.64,20.31,52,32.75,8.73,17.09,9.61,36.31,2.54,55.58-25.8,70.28-152,129.27-205,151.37-50.5,21-87.47,68.28-123.23,114C2468.08,3316.41,2429,3366.36,2373.73,3366.36Zm-14.65-41.05c41.77,10.29,72.5-25.81,119.25-85.54,37.05-47.34,79.05-101,139-126,99.08-41.28,169.32-90.6,183.31-128.72,3.35-9.13,3.14-16.83-.65-24.25-3.13-6.12-10.77-10.1-22.71-11.81-54.83-7.91-156.53,35.1-192.84,73.07l-.33.35a19.58,19.58,0,0,1-28.39-27l.28-.3c63.84-67.17,139-174.91,114.39-203-1.65-1.89-6-6.93-20.09-5.4-60.88,6.57-178.88,115-219.25,188.18a19.58,19.58,0,0,1-34.59-18.36c27.53-54,61.79-143.11,51.75-172.24-1.13-3.27-2.27-3.81-2.77-4-1.08-.3-6.73-.12-16.2,5.57-36,21.6-83.91,93.19-110.39,229.34-27.69,142.36-22.77,294.59,40.22,310.1Z" transform="translate(-724.22 -595.53)"/><path class="cls-10" d="M1240.18,2591.67c-2.25,31.57-18.84,48.12-31.52,56.25a59.31,59.31,0,0,1-14.79,7c58.31,118.37-57.47,119.25-57.47,119.25,96.64,138.39-47.88,137.51-146.23,58.3C917,2773.53,913.22,2687,916.06,2646.69c.24-3.13.49-6,.78-8.56.93-8.67,2-13.71,2-13.71C876.4,2565,864.66,2470.75,880,2422.83a68.67,68.67,0,0,1,7.73-16.7,32.33,32.33,0,0,1,11-10.62c22.76-12.44,45.28-.83,59.72,10.57,3.67,2.94,6.85,5.83,9.35,8.28a0,0,0,0,0,0,0c4.21,4.21,6.61,7.19,6.61,7.19s-6.41-60.6,14-95.8a54.26,54.26,0,0,1,10-12.73,41.87,41.87,0,0,1,14.29-9c13.22-4.89,30.3-6.17,53.21,6.12,22.67,12.19,51,37.7,86.65,86.16,12.29,16.6,25.41,35.93,39.46,58.3a9.66,9.66,0,0,0,.64,1l.14.3c25.41,40.68,38.73,73.28,44.36,99.33C1240.23,2569.2,1241,2581.24,1240.18,2591.67Z" transform="translate(-724.22 -595.53)"/><g class="cls-13"><path class="cls-14" d="M1006.28,2482.45c-24.67-21.34-49.74-42.59-78.18-58.6a210.56,210.56,0,0,0-40.34-17.72,32.33,32.33,0,0,1,11-10.62c22.76-12.44,45.28-.83,59.72,10.57,3.67,2.94,6.85,5.83,9.35,8.28a0,0,0,0,0,0,0Z" transform="translate(-724.22 -595.53)"/></g><g class="cls-13"><path class="cls-14" d="M1228.48,2611.2c-9.2-48.12-37.94-89.93-67.06-129.34-40.15-54.29-82.93-107.6-136.05-149.31q-13.06-10.2-26.87-19.48a41.87,41.87,0,0,1,14.29-9c13.22-4.89,30.3-6.17,53.21,6.12,8.42,6.12,16,13.22,23.55,20.37,22,20.9,43.82,42.44,63.1,65.79,15.28,18.41,29,38,40.1,59.28l.14.3c10,19.33,17.63,39.85,25.21,60.26C1229.51,2546.83,1240.92,2581,1228.48,2611.2Z" transform="translate(-724.22 -595.53)"/></g><g class="cls-11"><path class="cls-12" d="M1240.87,2590.1c-.2.54-.44,1-.69,1.57a254.58,254.58,0,0,1-28.78,51.65,17.24,17.24,0,0,0-2.74,4.6,59.31,59.31,0,0,1-14.79,7c58.31,118.37-57.47,119.25-57.47,119.25,96.64,138.39-47.88,137.51-146.23,58.3C917,2773.53,913.22,2687,916.06,2646.69l.44-.44c12.19,51.8,53.8,91.4,97.37,121.95,18,12.68,37.35,24.62,59,28.88s46.26-.64,60.8-17.23c-50.77-25.46-107-41-152.64-74.9-25-18.51-45.67-41.76-64.18-66.82.93-8.67,2-13.71,2-13.71C876.4,2565,864.66,2470.75,880,2422.83c21.54,69.07,55.41,135.31,106.77,186.12,53.41,52.82,127.28,87.53,202.28,83.61,3.18-.14,6.6-.49,9-2.59,3.33-3,3.14-8.32,1.82-12.68-5.59-18.55-24.53-29.18-41.71-38.23-45.29-23.8-90.32-50.23-124.2-88.61-36.18-41-57-92.62-75.44-144.37a108.87,108.87,0,0,1,16,15.52s-6.41-60.6,14-95.8c.59,22.76,6.31,45.53,15,66.48,33,80.09,108.29,144.95,194.64,152.3,13.42,1.12,29.57,2.88,39.12,10.72a21.24,21.24,0,0,1,7.29,11.16C1246.65,2574.29,1244,2582.56,1240.87,2590.1Z" transform="translate(-724.22 -595.53)"/></g><path class="cls-12" d="M1120.92,2905.76c-44.18,0-100.83-24.05-143-58-92.54-74.52-84.25-186.84-79.71-218.75-39.93-61.18-51.7-149.3-39.64-201.7,5.6-24.37,16-40.84,30.85-48.95,23.19-12.65,46.22-8.45,65.12,1.58,2.55-35,13.51-80,51.47-94.14h0c57.11-21.2,121.53,29.16,202.71,158.54,46.83,74.62,61.79,134.75,44.46,178.71a86,86,0,0,1-33.78,41.18c14.09,36,14,65.85-.3,89-12.43,20.14-33,30.27-50.42,35.36,30.85,55.21,19.45,84.9,2.79,100.45C1159,2900.65,1141.29,2905.76,1120.92,2905.76ZM919.46,2409.83a23.31,23.31,0,0,0-11.32,2.87c-3.19,1.75-8.12,8.91-11.44,23.35-10.34,45,1.26,125.42,38,177a19.61,19.61,0,0,1,3.22,15.38c-1,4.76-23,118.29,64.49,188.76,58.72,47.29,125.75,58.64,142.27,43.2,7.82-7.31,6.14-31.35-24.37-75a19.57,19.57,0,0,1,15.9-30.79c10.08-.16,38.8-4.42,49.55-22,11.21-18.32,1-47.64-9.51-69a19.57,19.57,0,0,1,12.54-27.58,47.08,47.08,0,0,0,28.15-28c8.27-21.85,7.8-64.38-41.46-142.88-46.56-74.2-111.38-159.15-155.91-142.64h0c-26.11,9.7-28.55,69.6-25.64,97.09a19.58,19.58,0,0,1-34.79,14.26C959,2433.58,939.5,2409.83,919.46,2409.83Zm93.34-105.71h0Z" transform="translate(-724.22 -595.53)"/><path class="cls-12" d="M1197.44,2676.61a19.75,19.75,0,0,1-6.63-1.16c-182.12-65.61-235.1-246.93-237.27-254.62a19.58,19.58,0,0,1,37.69-10.64c.58,2,50.24,169.83,212.85,228.41a19.59,19.59,0,0,1-6.64,38Z" transform="translate(-724.22 -595.53)"/><path class="cls-12" d="M1142.21,2797.49a19.85,19.85,0,0,1-5.75-.86C971.34,2746,903.81,2639.34,901,2634.83a19.58,19.58,0,0,1,33.29-20.64c.91,1.45,63.72,99.06,213.63,145a19.59,19.59,0,0,1-5.73,38.31Z" transform="translate(-724.22 -595.53)"/><path class="cls-30" d="M2797.61,1019.36c-19.92,170.85-122.58,336-122.58,336-82.93-.93-154.89-8.61-216.82-20.22h-.05c-231.4-43.17-322.6-140.64-322.6-140.64-9.89-79.9,10.23-175.5,29-241.89,13.61-48.41,26.53-81.31,26.53-81.31C2549.85,808.61,2797.61,1019.36,2797.61,1019.36Z" transform="translate(-724.22 -595.53)"/><g class="cls-11"><path class="cls-12" d="M2797.61,1019.36c-19.92,170.85-122.58,336-122.58,336-82.93-.93-154.89-8.61-216.82-20.22a403.33,403.33,0,0,0,145.1-47.24c22.57-12.53,44.6-28,58-50.08s16.35-52.13,1.37-73.18c-13.65-19.15-38.87-26.88-62.36-27s-46.61,6.17-69.91,9.16c-86.36,11.11-173.59-23.06-243.45-75-45.82-34.17-85.47-75.73-122.43-119.16,13.61-48.41,26.53-81.31,26.53-81.31C2549.85,808.61,2797.61,1019.36,2797.61,1019.36Z" transform="translate(-724.22 -595.53)"/></g><path class="cls-12" d="M2675,1374.94h-.21c-396.76-4.32-547.33-160.44-553.54-167.09a19.55,19.55,0,0,1-5.13-11c-17.5-141.42,53.68-325,56.73-332.75A19.54,19.54,0,0,1,2187.71,852c190-33.18,348.93,9.84,448.76,51.78,108.33,45.49,171.2,98.43,173.82,100.66a19.57,19.57,0,0,1,6.77,17.19c-20.21,173.21-121.13,337.19-125.42,344.08A19.58,19.58,0,0,1,2675,1374.94Zm-520.78-189.7c26.59,24.13,175.44,144.11,509.73,150.37,20.84-36,93.83-169.85,112.83-307.75-44.5-33.78-267.2-187.65-571.29-139.15C2191.29,928.14,2143,1072.76,2154.23,1185.24Z" transform="translate(-724.22 -595.53)"/><path class="cls-30" d="M2620.33,617.45c-62.42-17.27-604.83,60.25-618.93,125.88-10.92,50.81,338.09,332.82,446.72,354.71,77.57,15.63,590.13-85.84,600.31-125.56C3065.3,906.64,2704.23,640.64,2620.33,617.45Z" transform="translate(-724.22 -595.53)"/><g class="cls-13"><path class="cls-14" d="M3034.79,989.25c-64.22-118.12-355.55-311.93-429.13-332.3-19.14-5.29-75.29-1.76-148.38,7.74a9.25,9.25,0,0,1,1.86,4.6c1.52,13.51-27.85,27.9-65.55,32.11-36.61,4.06-67.75-3-70.78-15.81-112.6,20-235.08,47.73-321.68,76.71-7.44-11.36-3.87-7.49-2.6-13.36,14.1-65.6,556.51-143.15,618.93-125.87,83.91,23.21,445,289.18,428.1,355C3044.24,983.18,3050.46,982.54,3034.79,989.25Z" transform="translate(-724.22 -595.53)"/></g><path class="cls-12" d="M2470.74,1119.19c-10.82,0-19.8-.61-26.49-2-100.71-20.3-388.78-244.35-449.66-337.26-10.84-16.54-14.76-29.5-12.34-40.77,2.59-12,11.88-22.75,28.38-32.76,101-61.18,550-125.83,614.92-107.88h0c49.63,13.72,167.73,93.4,258.73,165,198,155.79,186.79,199.41,183.12,213.75-3.36,13.11-13.59,27-100.65,52.5-48.85,14.31-116.07,30.42-189.29,45.36C2690.69,1092.9,2541.65,1119.19,2470.74,1119.19Zm-449.64-372c5.65,18.57,64.21,84.51,179.24,175.57,106.82,84.56,207.95,147.29,251.65,156.09,31,6.26,158.55-10.2,303.3-39.12,154.37-30.83,253.63-60.72,274-74.76-3.39-18.23-50.76-77.82-172.92-173.49-97.9-76.66-203.88-144.81-241.27-155.15h0c-23.77-6.58-156.74,4.39-309.52,30.63C2116.66,699.4,2033.24,732.05,2021.1,747.18Zm-.39-1.73" transform="translate(-724.22 -595.53)"/><g class="cls-11"><path class="cls-12" d="M3048.43,972.48c-10.19,39.7-522.78,141.18-600.33,125.56-108.63-21.88-457.62-303.9-446.7-354.72,1.9-8.86,13.46-18,32.26-27,87.57,99,327.7,282.41,414.44,299.89,66.63,13.46,454.39-59.58,568.75-105.59C3039.47,937.08,3051.9,959,3048.43,972.48Z" transform="translate(-724.22 -595.53)"/></g><path class="cls-10" d="M2915.54,1542.48a281.58,281.58,0,0,1-31.23,10.92c29.27-6.56,78.57-15.18,102.26-5.43,6.42,2.59,10.92,6.51,12.68,12.19a19.31,19.31,0,0,1,.74,6.36c-1.18,45.33-112.79,193.17-423,151.81-12.54-1.72-25.41-3.68-38.58-6l-8.76-9.69-28.54-31.53-227.35-251.52s42.89,1.76,104.37-3.58c57.57-5,131.45-16.25,201.65-41,145.14-51.16,293-168.65,348.11-132.13.19.15.44.3.64.44a27.41,27.41,0,0,1,8.51,9.16c14.54,26.38-23.3,74.21-56.88,109.12-20,20.7-38.43,36.86-43.52,41.31,2.59-1.9,8.52-6.26,16.84-12.09,45-31.57,161.06-106.62,207.22-76.32a36.61,36.61,0,0,1,11.26,11.65,8.25,8.25,0,0,1,.74,1.37c26.14,46.46-32.12,159.94-149.31,211.68C2920.78,1540.33,2918.19,1541.45,2915.54,1542.48Z" transform="translate(-724.22 -595.53)"/><g class="cls-13"><path class="cls-14" d="M3000.19,1565.39c-24,3.38-48.22,5.48-72.31,2.94-14.29-1.52-28.24-4.7-42.1-8.33-16.89-4.45-15.13-9.49.83-12.87,9.7-2.06,19.39-4,29.13-5.78a284.37,284.37,0,0,1-31.23,10.92c29.27-6.56,78.57-15.18,102.26-5.44,6.42,2.6,10.92,6.52,12.68,12.19A19.4,19.4,0,0,1,3000.19,1565.39Z" transform="translate(-724.22 -595.53)"/></g><g class="cls-13"><path class="cls-14" d="M3072.69,1327.52c-36.77,5-72.6,17.24-107.8,29.43-37.6,13-75.34,28.83-113.72,39.16a13.92,13.92,0,0,1,2.3-5.29c45-31.57,161.06-106.62,207.22-76.32a36.61,36.61,0,0,1,11.26,11.65A8.25,8.25,0,0,1,3072.69,1327.52Z" transform="translate(-724.22 -595.53)"/></g><g class="cls-13"><path class="cls-14" d="M2937,1252.48c-57.71,25.6-111.22,62-168,90.56a701,701,0,0,1-185.88,62.62,709.54,709.54,0,0,1-176.87,10.86c-6.51-.44-18.16.25-28.2-.49,57.57-5,131.45-16.25,201.65-41,145.14-51.16,293-168.65,348.11-132.13.19.15.44.3.64.44A27.41,27.41,0,0,1,2937,1252.48Z" transform="translate(-724.22 -595.53)"/></g><g class="cls-11"><path class="cls-12" d="M2880.15,1361.6c-71.13,52.52-151.27,91.54-238.26,104a1492.69,1492.69,0,0,0,222.54-159.11c22.57-19.48,44.9-40.24,64.09-63.15C2961.46,1266.23,2918.09,1322.14,2880.15,1361.6Z" transform="translate(-724.22 -595.53)"/></g><g class="cls-11"><path class="cls-12" d="M2921.81,1532.59c-10.87,2.6-21.79,5-32.7,7.15-77.3,15.67-157,24.72-235,13.27,76.81-17.14,153-39.41,223.52-74.31s135.56-83,183.24-145.64c3.28-4.36,6.51-8.81,9.54-13.51C3098.39,1365.12,3040.13,1480.36,2921.81,1532.59Z" transform="translate(-724.22 -595.53)"/></g><g class="cls-11"><path class="cls-12" d="M2575.41,1711.69c-15.92-4.65-31.75-9.9-47.33-15.63q-28.51-10.43-56.11-23c-14.71-6.66-22.85-11-34.24-22.57,17,13.27,40.19,14.23,61.82,14h2c92.23-1.18,185-7.21,274.46-29.43,74.55-18.51,147-48.77,209-93.73,6.42,2.58,10.94,6.53,12.72,12.21C3008.67,1588.82,2902.25,1755.31,2575.41,1711.69Z" transform="translate(-724.22 -595.53)"/></g><path class="cls-12" d="M2272.64,1405.39c36.84-7.36,73.35-12.09,109.61-17,36.28-4.71,72.31-10.34,107.91-17.5s70.6-16.45,104.25-29.65,66.82-29.25,99.79-46,65.79-34.5,100-51c17.18-8.19,34.57-16.23,53.35-22.83A214.61,214.61,0,0,1,2877,1213c10.37-2.1,21.59-3.51,34.14-2,3.14.46,6.38,1.19,9.54,1.88a102.13,102.13,0,0,1,9.66,3.58c6.24,3.17,12.53,7.06,17.77,13.48a39.46,39.46,0,0,1,3.69,4.92c1,1.82,2,3.69,2.94,5.58a30,30,0,0,1,2.06,5.8,38.18,38.18,0,0,1,1.34,5.86,52.56,52.56,0,0,1,.42,11c-.12,1.72-.24,3.48-.44,5.17l-.93,4.71c-2.76,12.4-7.68,22.22-12.86,31.37a243.23,243.23,0,0,1-17,25.29,474.58,474.58,0,0,1-38.64,43.72c-13.59,13.72-27.29,26.56-42.24,39.35l-24.39-30.63c21.5-15.92,43-30.24,65.49-44s45.66-26.39,70.47-37.13a277.71,277.71,0,0,1,39-13.76c13.77-3.49,28.51-6.14,45.3-4.45,2.08.21,4.29.72,6.42,1.11a37.12,37.12,0,0,1,6.51,1.67c2.2.74,4.39,1.49,6.56,2.34,2.16,1.09,4.32,2.24,6.43,3.42,8.21,5.06,15.73,12.28,20.22,20.76a67.81,67.81,0,0,1,8.06,25.49c.73,4.27.5,8.19.68,12.29-.17,3.94-.4,7.88-.86,11.7-2,15.23-6.49,29.13-12.11,42.19a224.41,224.41,0,0,1-20.27,36.77,298.57,298.57,0,0,1-55,61,327,327,0,0,1-68.49,44.51,336.66,336.66,0,0,1-77.34,26.11l-.12,0a19.58,19.58,0,0,1-9-38.08c14.54-3.89,28.43-7,42.9-9.69a385.65,385.65,0,0,1,44.2-5.81,192.39,192.39,0,0,1,23.58-.17c8.2.58,16.77,1.54,26.6,5.21,5,2.1,10.32,4.59,15.53,9.78,5.09,4.85,9.43,12.39,10.37,19.79,1.22,7.47.3,12.6-.56,17.64a78.34,78.34,0,0,1-4,13.29c-6.35,16.33-15.51,29.22-25.45,41.29a235.49,235.49,0,0,1-33,32.11,320.88,320.88,0,0,1-77.44,45.35,432.65,432.65,0,0,1-84.69,25.32c-28.8,5.67-57.9,8.32-86.92,10.27-7.25.34-14.53.9-21.78,1l-21.78.12c-7.26-.17-14.48-.59-21.71-1.16l-10.83-.83-10.75-1.46c-7.16-1-14.32-2-21.41-3.37s-14.1-3.28-21.08-5.16c-3.48-1-7-1.92-10.42-3.1s-6.85-2.53-10.26-3.79a187.59,187.59,0,0,1-20.14-9,6.87,6.87,0,0,1-2.77-9.32,7,7,0,0,1,5.06-3.54c29.16-4.32,56.75-3.17,84.29-2.62s54.78,2.33,82.07,2a452.11,452.11,0,0,0,80.93-8.47,393,393,0,0,0,77-23,282.16,282.16,0,0,0,68-39.72,198.21,198.21,0,0,0,27.52-26.76c8-9.57,15.13-20.17,18.93-30.21a40.52,40.52,0,0,0,2.13-6.9,15.85,15.85,0,0,0,.38-3.32c.2.33.64,1.48.77,1.46a8.42,8.42,0,0,0-2.33-1.22c-3.38-1.3-8.94-2.27-14.76-2.6a156,156,0,0,0-18.67.16c-25.82,1.83-53.36,7.39-79.11,14.16l-9.15-38.06a297.76,297.76,0,0,0,68.11-23,288.36,288.36,0,0,0,60.22-39.13,260.2,260.2,0,0,0,47.77-52.91,186.49,186.49,0,0,0,16.86-30.52,120.34,120.34,0,0,0,9.19-31.48c1.39-10.2.11-19.69-3.11-25.35s-7.93-8.46-16.66-9.7c-8.81-.92-19.82.56-30.81,3.46a237.77,237.77,0,0,0-33.45,11.85c-22.3,9.64-44.21,21.64-65.57,34.6s-42.5,27.18-62.23,41.79a19.59,19.59,0,0,1-24.53-30.51l.14-.12c26.92-23.29,53.56-49.31,74.93-76.84a204.31,204.31,0,0,0,14.2-21c4.05-7,7.29-14.19,8.52-20l.47-2.14.1-1.78a13.71,13.71,0,0,0,0-2.91c-.47-1.38-.39-2.12-1.34-2.91-.55-.94-2.4-2.06-4.37-3.16-1.07-.47-2.31-.78-3.43-1.29-1.41-.2-2.72-.55-4.17-.8-6-.8-13.58-.15-21.41,1.51a175.55,175.55,0,0,0-24.2,6.93c-16.41,5.73-32.94,13.32-49.38,21.18-32.93,15.91-65.74,33.65-99.2,50.64s-67.59,33.5-103.19,47.64a746.77,746.77,0,0,1-109.84,34.09,681.59,681.59,0,0,1-113.13,15.51,466.94,466.94,0,0,1-57-.31c-19-1.39-37.88-3.69-56.77-8.67a6.68,6.68,0,0,1,.39-13Z" transform="translate(-724.22 -595.53)"/><path class="cls-12" d="M2765.82,1538.9c-.44,0-.87,0-1.32,0a19.59,19.59,0,0,1-18.24-20.84c.25-3.78,25.22-379.11,32.79-465.69,4.52-51.56-153-163.75-266.36-226.94a19.59,19.59,0,0,1,19.08-34.21c2.94,1.64,72.79,40.73,142.95,91.33,100.33,72.36,147.22,129,143.35,173.23-7.53,86.18-32.48,461.1-32.73,464.88A19.58,19.58,0,0,1,2765.82,1538.9Z" transform="translate(-724.22 -595.53)"/><path class="cls-26" d="M2708.56,1556.42c3.57-28.68,31.9-48.74,63.26-44.83s53.91,30.32,50.33,59-31.9,48.75-63.27,44.84S2705,1585.08,2708.56,1556.42Z" transform="translate(-724.22 -595.53)"/><path class="cls-12" d="M2766.65,1634a80.89,80.89,0,0,1-10-.62,77.71,77.71,0,0,1-49.77-26.41c-12.83-15.05-18.6-33.78-16.24-52.74s12.56-35.7,28.7-47.14a79.17,79.17,0,0,1,104.5,13c12.84,15,18.61,33.78,16.25,52.74C2835.66,1608.17,2803.74,1634,2766.65,1634ZM2764,1529.16a41,41,0,0,0-23.76,7.36c-7.75,5.5-12.63,13.36-13.73,22.13h0c-1.09,8.77,1.71,17.59,7.88,24.82a41.66,41.66,0,0,0,26.76,14c21.43,2.65,40.77-10.41,43.11-29.14,1.09-8.77-1.71-17.58-7.88-24.82a41.69,41.69,0,0,0-26.77-14A46.17,46.17,0,0,0,2764,1529.16Zm-55.41,27.26h0Z" transform="translate(-724.22 -595.53)"/></svg>