<svg id="Layer_1" data-name="Layer 1" xmlns="http://www.w3.org/2000/svg" xmlns:xlink="http://www.w3.org/1999/xlink" viewBox="0 0 1162.07 1367.98"><defs><style>.cls-1{mask:url(#mask);}.cls-2,.cls-4,.cls-6,.cls-8{mix-blend-mode:multiply;}.cls-2{fill:url(#linear-gradient);}.cls-3{mask:url(#mask-2);}.cls-4{fill:url(#linear-gradient-2);}.cls-5{mask:url(#mask-3);}.cls-6{fill:url(#linear-gradient-3);}.cls-7{mask:url(#mask-4);}.cls-8{fill:url(#linear-gradient-4);}.cls-12,.cls-16,.cls-9{fill:#000072;}.cls-11,.cls-9{opacity:0.2;}.cls-10{fill:#9c9c9c;}.cls-13{opacity:0.6;}.cls-14,.cls-17{fill:#fff;}.cls-15{fill:#dbdbdb;}.cls-16,.cls-17{fill-rule:evenodd;}.cls-18{mask:url(#mask-5);}.cls-19{fill:url(#linear-gradient-5);}.cls-20{mask:url(#mask-6);}.cls-21{fill:url(#linear-gradient-6);}.cls-22{mask:url(#mask-7);}.cls-23{fill:url(#linear-gradient-7);}.cls-24{mask:url(#mask-8);}.cls-25{fill:url(#linear-gradient-8);}.cls-26{fill:#fdcb38;}.cls-27{fill:#ff4239;}.cls-28{fill:#3c6;}.cls-29{fill:#785151;}.cls-30{fill:#4e3da3;}.cls-31{filter:url(#luminosity-noclip-8);}.cls-32{filter:url(#luminosity-noclip-7);}.cls-33{filter:url(#luminosity-noclip-6);}.cls-34{filter:url(#luminosity-noclip-5);}.cls-35{filter:url(#luminosity-noclip-4);}.cls-36{filter:url(#luminosity-noclip-3);}.cls-37{filter:url(#luminosity-noclip-2);}.cls-38{filter:url(#luminosity-noclip);}</style><filter id="luminosity-noclip" x="1338.98" y="-10192" width="200.62" height="32766" filterUnits="userSpaceOnUse" color-interpolation-filters="sRGB"><feFlood flood-color="#fff" result="bg"/><feBlend in="SourceGraphic" in2="bg"/></filter><mask id="mask" x="1338.98" y="-10192" width="200.62" height="32766" maskUnits="userSpaceOnUse"><g class="cls-38"/></mask><linearGradient id="linear-gradient" x1="1549.59" y1="1170.41" x2="1302.32" y2="1374.81" gradientUnits="userSpaceOnUse"><stop offset="0" stop-color="#fff"/><stop offset="0.99"/></linearGradient><filter id="luminosity-noclip-2" x="1299.86" y="-10192" width="217.84" height="32766" filterUnits="userSpaceOnUse" color-interpolation-filters="sRGB"><feFlood flood-color="#fff" result="bg"/><feBlend in="SourceGraphic" in2="bg"/></filter><mask id="mask-2" x="1299.86" y="-10192" width="217.84" height="32766" maskUnits="userSpaceOnUse"><g class="cls-37"/></mask><linearGradient id="linear-gradient-2" x1="1498.34" y1="1108.42" x2="1251.08" y2="1312.82" xlink:href="#linear-gradient"/><filter id="luminosity-noclip-3" x="1050.07" y="-10192" width="171.58" height="32766" filterUnits="userSpaceOnUse" color-interpolation-filters="sRGB"><feFlood flood-color="#fff" result="bg"/><feBlend in="SourceGraphic" in2="bg"/></filter><mask id="mask-3" x="1050.07" y="-10192" width="171.58" height="32766" maskUnits="userSpaceOnUse"><g class="cls-36"/></mask><linearGradient id="linear-gradient-3" x1="1264.52" y1="1090.26" x2="1045.17" y2="1260.76" xlink:href="#linear-gradient"/><filter id="luminosity-noclip-4" x="1016.61" y="-10192" width="186.31" height="32766" filterUnits="userSpaceOnUse" color-interpolation-filters="sRGB"><feFlood flood-color="#fff" result="bg"/><feBlend in="SourceGraphic" in2="bg"/></filter><mask id="mask-4" x="1016.61" y="-10192" width="186.31" height="32766" maskUnits="userSpaceOnUse"><g class="cls-35"/></mask><linearGradient id="linear-gradient-4" x1="1221.9" y1="1035.43" x2="1002.55" y2="1205.93" xlink:href="#linear-gradient"/><filter id="luminosity-noclip-5" x="1338.98" y="1169.38" width="200.62" height="160.26" filterUnits="userSpaceOnUse" color-interpolation-filters="sRGB"><feFlood flood-color="#fff" result="bg"/><feBlend in="SourceGraphic" in2="bg"/></filter><mask id="mask-5" x="614.77" y="573.85" width="200.62" height="160.26" maskUnits="userSpaceOnUse"><g class="cls-34"><g transform="translate(-724.22 -595.53)"><g class="cls-1"><path class="cls-2" d="M1339,1304.32l191.34-134.94a119,119,0,0,1,9.24,49.51l-157,110.75A119.11,119.11,0,0,1,1339,1304.32Z"/></g></g></g></mask><linearGradient id="linear-gradient-5" x1="1549.59" y1="1170.41" x2="1302.32" y2="1374.81" gradientUnits="userSpaceOnUse"><stop offset="0" stop-color="#fff"/><stop offset="0.99" stop-color="#fff"/></linearGradient><filter id="luminosity-noclip-6" x="1299.86" y="1103.66" width="217.84" height="181.13" filterUnits="userSpaceOnUse" color-interpolation-filters="sRGB"><feFlood flood-color="#fff" result="bg"/><feBlend in="SourceGraphic" in2="bg"/></filter><mask id="mask-6" x="575.64" y="508.13" width="217.84" height="181.13" maskUnits="userSpaceOnUse"><g class="cls-33"><g transform="translate(-724.22 -595.53)"><g class="cls-3"><path class="cls-4" d="M1299.86,1218.32l162.59-114.66a119.55,119.55,0,0,1,55.25,42.93l-195.94,138.19A119.41,119.41,0,0,1,1299.86,1218.32Z"/></g></g></g></mask><linearGradient id="linear-gradient-6" x1="1498.34" y1="1108.42" x2="1251.08" y2="1312.82" xlink:href="#linear-gradient-5"/><filter id="luminosity-noclip-7" x="1050.07" y="1111.41" width="171.58" height="137.07" filterUnits="userSpaceOnUse" color-interpolation-filters="sRGB"><feFlood flood-color="#fff" result="bg"/><feBlend in="SourceGraphic" in2="bg"/></filter><mask id="mask-7" x="325.85" y="515.88" width="171.58" height="137.07" maskUnits="userSpaceOnUse"><g class="cls-32"><g transform="translate(-724.22 -595.53)"><g class="cls-5"><path class="cls-6" d="M1050.07,1226.82l163.64-115.41a101.88,101.88,0,0,1,7.91,42.34l-134.31,94.72A101.86,101.86,0,0,1,1050.07,1226.82Z"/></g></g></g></mask><linearGradient id="linear-gradient-7" x1="1264.52" y1="1090.26" x2="1045.17" y2="1260.76" xlink:href="#linear-gradient-5"/><filter id="luminosity-noclip-8" x="1016.61" y="1055.2" width="186.31" height="154.91" filterUnits="userSpaceOnUse" color-interpolation-filters="sRGB"><feFlood flood-color="#fff" result="bg"/><feBlend in="SourceGraphic" in2="bg"/></filter><mask id="mask-8" x="292.39" y="459.67" width="186.31" height="154.91" maskUnits="userSpaceOnUse"><g class="cls-31"><g transform="translate(-724.22 -595.53)"><g class="cls-7"><path class="cls-8" d="M1016.61,1153.27l139.06-98.07a102.23,102.23,0,0,1,47.25,36.72l-167.58,118.19A102.2,102.2,0,0,1,1016.61,1153.27Z"/></g></g></g></mask><linearGradient id="linear-gradient-8" x1="1221.9" y1="1035.43" x2="1002.55" y2="1205.93" xlink:href="#linear-gradient-5"/></defs><title>3400_2_11 [Convertido]x</title><ellipse class="cls-9" cx="581.04" cy="1187.33" rx="581.04" ry="180.66"/><path class="cls-10" d="M1647.61,1380.28s254.56,504.92-322,479.05c-164.92-7.4-261.84-66-301.16-153.13a217.51,217.51,0,0,1-8.38-21.5c-41.5-126,27.81-272.64,73.71-311.84,0,0-107.44-132.79-41.11-317.3,7.95-22.15,21.26-47.12,39.55-72.15,73.26-100.48,226.13-201.84,431.26-123.84,96.8,36.81,156.31,102,187.65,174.63,21.66,50.13,29.87,103.78,27.61,154C1730.87,1273.36,1697,1348.67,1647.61,1380.28Z" transform="translate(-724.22 -595.53)"/><g class="cls-11"><path class="cls-12" d="M1647.61,1380.28s254.56,504.92-322,479.05c-164.92-7.4-261.84-66-301.16-153.13a450.77,450.77,0,0,0,67,42.6c97.62,50.53,213.66,64.46,320.49,38.48a492.43,492.43,0,0,0,129-52.12c38-21.89,74.86-50.57,91.45-91.17,15.56-38.06,11.07-81.71-1.75-120.77-13.69-41.82-38.46-82.08-74.64-106.08a15.63,15.63,0,0,1-1-25.47,301.52,301.52,0,0,0,95-125.27c9.79-24.36,16.19-52.51,5.21-76.33-13.4-29.2-68.66-51.48-70.14-84.91-1.54-34.69,86.8-58.58,113.46-68.05q4.26-1.54,8.63-2.91c21.66,50.13,29.87,103.78,27.61,154C1730.87,1273.36,1697,1348.67,1647.61,1380.28Z" transform="translate(-724.22 -595.53)"/></g><g class="cls-13"><path class="cls-14" d="M1734.71,1188.19h0s-63.89-267.87-291.81-322.59c-144.17-34.62-276.71,50.53-354.67,117.81,73.26-100.48,226.13-201.84,431.26-123.84C1683.09,921.81,1740.23,1065.26,1734.71,1188.19Z" transform="translate(-724.22 -595.53)"/></g><path class="cls-15" d="M1180.4,1055.87c-59-5.53-121.9,58.16-130.41,131.37-7.79,66.94,13.12,128.43,56.5,173.91-3.88,0-16.74,11.74-16.74,11.74-45.92,39.21-115.21,185.85-73.69,311.87,24.18,73.39,85,129.49,187.55,156.88,3.57.49,6,.44,9.91,1.08,121.49,20.11,278.88-66.85,283.9-214.55S1427,1419.44,1427,1419.44c-.52-.65-1.11-1.12-1.63-1.76a129.48,129.48,0,0,0,13.44-8.82c88.46-69.62,112.8-220.65,22.8-293.55-105.86-85.74-208.45-3.39-208.45-3.39C1233.31,1075.19,1207.23,1058.39,1180.4,1055.87Z" transform="translate(-724.22 -595.53)"/><path class="cls-16" d="M1122.41,1197c0-20.83,9.43-37.71,21.07-37.71s21.06,16.88,21.06,37.71-9.43,37.71-21.06,37.71S1122.41,1217.82,1122.41,1197Z" transform="translate(-724.22 -595.53)"/><path class="cls-17" d="M1134.48,1210.47c0-5.24,3-9.49,6.64-9.49s6.64,4.25,6.64,9.49-3,9.5-6.64,9.5S1134.48,1215.72,1134.48,1210.47Z" transform="translate(-724.22 -595.53)"/><path class="cls-16" d="M1331.78,1244.77c0-24.19,13.7-43.79,30.61-43.79s30.6,19.6,30.6,43.79-13.7,43.8-30.6,43.8S1331.78,1269,1331.78,1244.77Z" transform="translate(-724.22 -595.53)"/><path class="cls-17" d="M1348.47,1257.27c0-6.71,3.8-12.14,8.49-12.14s8.48,5.43,8.48,12.14-3.8,12.13-8.48,12.13S1348.47,1264,1348.47,1257.27Z" transform="translate(-724.22 -595.53)"/><path class="cls-12" d="M1367.1,1869.59q-20.4,0-41.93-1c-87.46-3.93-159.36-22.28-213.7-54.54-51.63-30.65-86.7-73.2-104.26-126.49-40.83-123.94,22.25-267.55,70.13-315.87-9-12.78-27.69-42.5-41.85-85.41-17.4-52.72-30.77-136.1,4.38-233.9,23.62-65.71,91.66-152.35,190.43-197.79,89.51-41.18,190.64-42.47,292.45-3.76,125.93,47.89,206,151.1,219.65,283.16,5.39,52.07-.59,106.07-16.85,152.07-15.07,42.65-38.38,76.86-66.12,97.32A638.11,638.11,0,0,1,1701,1506.67c22,98.14,13.06,181.85-25.92,242.09C1623.13,1829,1519.61,1869.59,1367.1,1869.59ZM1376.43,841a327.78,327.78,0,0,0-138.35,30.54c-93.87,43.18-158.39,125.12-180.7,187.17-33.23,92.48-20.77,171.25-4.46,221,17.76,54.22,43.81,86.94,44.08,87.27a9.33,9.33,0,0,1-1.2,12.92c-20.13,17.18-48.58,60.66-66.8,119-14.27,45.76-26.57,114.61-4.11,182.79,33.85,102.75,138,160.93,301.11,168.25,14.15.64,27.94,1,41.29,1,145.67,0,243.82-37.7,292.13-112.3,88-135.89-19-352.06-20.13-354.23a9.3,9.3,0,0,1,3.29-12c57.49-36.82,91.68-136.28,81.31-236.5-12.91-124.81-88.64-222.37-207.75-267.67C1468.32,850.09,1421.65,841,1376.43,841Z" transform="translate(-724.22 -595.53)"/><g class="cls-18"><path class="cls-19" d="M1339,1304.32l191.34-134.94a119,119,0,0,1,9.24,49.51l-157,110.75A119.11,119.11,0,0,1,1339,1304.32Z" transform="translate(-724.22 -595.53)"/></g><g class="cls-20"><path class="cls-21" d="M1299.86,1218.32l162.59-114.66a119.55,119.55,0,0,1,55.25,42.93l-195.94,138.19A119.41,119.41,0,0,1,1299.86,1218.32Z" transform="translate(-724.22 -595.53)"/></g><path class="cls-12" d="M1421.79,1348.5A129.19,129.19,0,1,1,1551,1219.31C1551,1290.54,1493,1348.5,1421.79,1348.5Zm0-239.77a110.58,110.58,0,1,0,110.58,110.58A110.7,110.7,0,0,0,1421.79,1108.73Z" transform="translate(-724.22 -595.53)"/><path class="cls-12" d="M1421.78,1348.5a130.12,130.12,0,0,1-27.89-3,129.21,129.21,0,0,1,0-252.31,130.12,130.12,0,0,1,27.89-3,129.19,129.19,0,1,1,0,258.37Zm0-239.76a110.93,110.93,0,0,0-23.89,2.6,110.6,110.6,0,0,0,0,216,110.59,110.59,0,1,0,23.9-218.55Z" transform="translate(-724.22 -595.53)"/><g class="cls-22"><path class="cls-23" d="M1050.07,1226.82l163.64-115.41a101.88,101.88,0,0,1,7.91,42.34l-134.31,94.72A101.86,101.86,0,0,1,1050.07,1226.82Z" transform="translate(-724.22 -595.53)"/></g><g class="cls-24"><path class="cls-25" d="M1016.61,1153.27l139.06-98.07a102.23,102.23,0,0,1,47.25,36.72l-167.58,118.19A102.2,102.2,0,0,1,1016.61,1153.27Z" transform="translate(-724.22 -595.53)"/></g><path class="cls-12" d="M1119.13,1264.22a112.39,112.39,0,1,1,112.39-112.38A112.5,112.5,0,0,1,1119.13,1264.22Zm0-206.16a93.78,93.78,0,1,0,93.78,93.78A93.88,93.88,0,0,0,1119.13,1058.06Z" transform="translate(-724.22 -595.53)"/><path class="cls-26" d="M1238.38,1361.14c-42.24-.54-40.64-52-39.48-65.63.19-2.1.35-3.31.35-3.31l-18,7.47c-.93-2.21-1.77-4.4-2.47-6.56a72.75,72.75,0,0,1-3-12.84c-5.26-37.53,23-64.26,47.39-68.79,16.89-3.15,30.9.76,41,12,.42.47.84.93,1.21,1.42,7.89,9.47,13.28,23.66,15.63,42.69.23,1.75.44,3.54.61,5.35C1283.52,1293.13,1287.12,1361.77,1238.38,1361.14Z" transform="translate(-724.22 -595.53)"/><g class="cls-11"><path class="cls-12" d="M1281.05,1267.61c-3.93,1.65-7.86,3.28-11.79,4.94-6.21,2.6-12.47,5.21-19.06,6.72-6,1.37-12.19,1.81-18.19,3.3-6.63,1.65-12.89,4.59-19.19,7.28q-6.91,3-13.92,5.66c.19-2.1.35-3.31.35-3.31l-18,7.47c-.93-2.21-1.77-4.4-2.47-6.56a72.75,72.75,0,0,1-3-12.84c9.86-.37,18.63-2.07,26.52-9.54,6.93-6.56,11.33-15.77,19.36-20.89,7.72-4.91,17.49-5.17,25.94-8.66a36.39,36.39,0,0,0,17.82-16.26C1273.31,1234.39,1278.7,1248.58,1281.05,1267.61Z" transform="translate(-724.22 -595.53)"/></g><g class="cls-13"><path class="cls-14" d="M1264.21,1223.5c-18.89.68-37.76,3.89-53,14.71-15.5,11-24.69,28.61-29.59,46.62a52,52,0,0,1-2.89,8.28c-14.56-44.18,17.36-76.59,44.39-81.63C1240.06,1208.33,1254.07,1212.24,1264.21,1223.5Z" transform="translate(-724.22 -595.53)"/></g><path class="cls-12" d="M1239.05,1369.73h-.77c-14.15-.18-25.54-5.2-33.87-14.91-12.21-14.23-14.51-35.43-14.5-49.44l-5.37,2.22a8.6,8.6,0,0,1-11.19-4.58c-12.1-28.48-5.95-50.66,1.33-64.26,9.75-18.19,28.16-32.21,46.91-35.71,16.51-3.09,30.66-.29,42.07,8.32,14.93,11.28,23.86,31.74,26.55,60.8h0c2,22,2.49,62-17.24,83.39C1264.28,1365,1252.87,1369.73,1239.05,1369.73Zm-39.79-86.1a8.58,8.58,0,0,1,8.5,9.78c-1.29,9.34-2.06,36.58,9.71,50.26,5,5.87,11.92,8.77,21,8.89,9.29.16,16.39-2.71,21.86-8.64,15.79-17.09,14.18-54.76,12.76-70.17h0c-2.19-23.71-9-40.55-19.8-48.68-7.39-5.58-17-7.31-28.56-5.15-13.83,2.59-27.55,13.17-34.94,27-4.82,9-9,23.11-3.54,41.42l9.71-4A8.72,8.72,0,0,1,1199.26,1283.63Z" transform="translate(-724.22 -595.53)"/><path class="cls-27" d="M1199.26,1292.22l80.07-28.29s-21.66,63.6-43.73,64.62-20.42-42-20.42-42" transform="translate(-724.22 -595.53)"/><path class="cls-12" d="M1234.84,1337.15a22.34,22.34,0,0,1-16-6.64c-8-8-10.84-21.79-11.78-31.93l-4.89,1.73a8.59,8.59,0,0,1-5.72-16.19l15.73-5.55.4-.14,63.94-22.59a8.59,8.59,0,0,1,11,10.86c-5.53,16.22-25.57,69.22-51.46,70.43Zm-11-44.51c.42,8.67,2.27,20.93,7.07,25.68a5.21,5.21,0,0,0,4.32,1.66c7.57-.36,19.91-19.93,29.37-41.73Z" transform="translate(-724.22 -595.53)"/><path class="cls-12" d="M1306.09,1197.49a9.29,9.29,0,0,1-7.15-3.34c-28.53-34.17-73.06-25.48-74.94-25.09a9.31,9.31,0,0,1-3.82-18.22c2.31-.49,57.23-11.52,93,31.38a9.3,9.3,0,0,1-7.13,15.27Z" transform="translate(-724.22 -595.53)"/><path class="cls-12" d="M1094.5,1432.87a46.62,46.62,0,0,0,8.31,12.11,16.88,16.88,0,0,0,9.84,5,29.71,29.71,0,0,0,11.11-1.26,96.12,96.12,0,0,0,12.32-4.76l.46-.21a8.35,8.35,0,0,1,11,4.18,8.48,8.48,0,0,1,.74,3.23c0,.44.15,1.51.24,2.33s.22,1.78.41,2.67c.33,1.79.72,3.57,1.22,5.31a42.16,42.16,0,0,0,4.12,9.82,38,38,0,0,0,3.09,4.43,33.88,33.88,0,0,0,4.09,3.91c3,2.66,6.82,4.44,11,6.61a27.58,27.58,0,0,1-14.3.63,16.1,16.1,0,0,1-3.66-1c-1.18-.48-2.42-.94-3.58-1.53s-2.24-1.34-3.35-2.06a36.05,36.05,0,0,1-3.07-2.47,39.28,39.28,0,0,1-9.15-12.58,43.73,43.73,0,0,1-2.65-7.19c-.36-1.22-.64-2.48-.92-3.74a35.86,35.86,0,0,1-.57-4.16l12.24,7.2-3.78,1.78c-1.28.57-2.64,1-4,1.54s-2.74.92-4.12,1.33-2.89.65-4.33,1c-5.88,1-12.59,1.08-18.95-1.61a23.73,23.73,0,0,1-13.18-13.79A27.23,27.23,0,0,1,1094.5,1432.87Z" transform="translate(-724.22 -595.53)"/><path class="cls-12" d="M1103.41,1357.69c11.64,9.06,22.95,17.54,34.49,25.53a373.92,373.92,0,0,0,35.34,21.81,271.5,271.5,0,0,0,37.62,16.79c13,4.8,26.6,8.16,41,11.59a105.54,105.54,0,0,1-44.36,1.49,137.63,137.63,0,0,1-42.4-14.76,156.48,156.48,0,0,1-35.84-26.6C1118.83,1383,1109.53,1371.24,1103.41,1357.69Z" transform="translate(-724.22 -595.53)"/><path class="cls-12" d="M1542.08,1233.38a9.31,9.31,0,0,1-2.38-18.3l93.14-24.67c2.62-.77,19.17-5.07,34,3.27,9.25,5.21,15.52,14,18.62,26a9.3,9.3,0,1,1-18,4.64c-1.82-7-5-11.77-9.72-14.43-8.39-4.71-19.57-1.66-19.67-1.62l-.32.09-93.26,24.7A9.39,9.39,0,0,1,1542.08,1233.38Z" transform="translate(-724.22 -595.53)"/><path class="cls-10" d="M1239.52,916.5l-2.93,2.31-1.37,1.09-47.6,37.39-61.56,48.36-9.09,7.14-2.87,2.26-1,.79c-1.25-.63-2.48-1.28-3.69-1.91,0,0,0,0-.05,0-.91-.49-1.82-.95-2.72-1.44-87.13-46.53-110.77-102.92-101.76-121.05a12,12,0,0,1,1.79-2.65,8.84,8.84,0,0,1,4.14-2.49,14.13,14.13,0,0,1,4.33-.53c4.16,0,9.16,1.44,14.47,3.65,17.59,7.23,38.59,23.08,44.06,27.33a87.29,87.29,0,0,1-11.33-11.3c-25.36-29.59-49.88-85.73-32.45-97.27a9.92,9.92,0,0,1,2.58-1.3l.91-.28c20.19-5.33,60.83,38.64,78.68,59.44,1.6,1.88,3,3.56,4.23,5A109.69,109.69,0,0,1,1109,859c-11.4-21.69-21.8-54.09-17.58-67,.83-2.52,2.21-4.28,4.23-5.1.21-.07.39-.16.6-.21,16-5.21,36.62,36.76,73.57,71.15,10.16,9.46,19.94,18.12,28.8,25.68C1222.43,903.85,1239.52,916.5,1239.52,916.5Z" transform="translate(-724.22 -595.53)"/><g class="cls-13"><path class="cls-14" d="M1076.58,921c-13.59,3.93-28-1.47-40.62-7.89-9.94-5.07-19.59-10.89-27.73-18.5-1-.93-2.14-2-3.35-3.21a12,12,0,0,1,1.79-2.65,8.84,8.84,0,0,1,4.14-2.49,14.13,14.13,0,0,1,4.33-.53c4.16,0,9.16,1.44,14.47,3.65,17.59,7.23,38.59,23.08,44.06,27.33a87.29,87.29,0,0,1-11.33-11.3l5.38,5.09C1071.07,913.69,1074.49,916.92,1076.58,921Z" transform="translate(-724.22 -595.53)"/></g><g class="cls-13"><path class="cls-14" d="M1115.48,871c-22.87-3.32-42.3-17.93-60.4-32.31a115.34,115.34,0,0,1-11.4-10,82.07,82.07,0,0,1-13.79-20.52,9.92,9.92,0,0,1,2.58-1.3l.91-.28c20.19-5.33,60.83,38.64,78.68,59.44Z" transform="translate(-724.22 -595.53)"/></g><g class="cls-13"><path class="cls-14" d="M1237.85,919.88c-.88,0-1.75,0-2.63,0-8.3-.35-16.17-4.47-23.4-8.7-14.17-8.33-27.67-17.71-41.07-27.22-14.19-10.05-28.47-20.43-39.2-34.13-6.12-7.84-10.93-16.59-15.75-25.31-5.72-10.43-11.44-20.82-16.54-31.57-1-2.07-2-4.17-3-6.31,16-5.21,36.62,36.76,73.57,71.15,10.16,9.46,19.94,18.12,28.8,25.68,8.61,10,18.82,18.89,28.89,27.55l9,7.77C1237,919.15,1237.43,919.53,1237.85,919.88Z" transform="translate(-724.22 -595.53)"/></g><g class="cls-11"><path class="cls-12" d="M1206.12,972.38c-14.8,14.06-33.43,23.43-52.4,31-10.91,4.4-22.17,8.3-33.89,9.21-1,.07-1.91.12-2.86.16a84.83,84.83,0,0,1-10.33-.32c-92-49.09-113.19-109.18-100-123.7a8.84,8.84,0,0,1,4.14-2.49c3.19,4.68,6.28,9.45,9.31,13.94,3.25,4.81,6,10,9.74,14.44,4.77,5.63,11,9.75,17.15,13.82,12.49,8.24,25.06,16.5,38.69,22.69a145,145,0,0,0,101.92,6.12c2.05-.63,4.07-1.33,6.07-2,6-2.19,14-4.21,17.68,1S1210.61,968.1,1206.12,972.38Z" transform="translate(-724.22 -595.53)"/></g><g class="cls-11"><path class="cls-12" d="M1153.75,878.77c-8-3.42-17.47-.93-25.55-4.07-3.58-1.38-6.65-3.8-9.58-6.29q-5.16-4.32-10-9.09c-11.4-21.68-21.8-54.09-17.59-67a157.24,157.24,0,0,0,8,20.36A176.18,176.18,0,0,0,1153.75,878.77Z" transform="translate(-724.22 -595.53)"/></g><g class="cls-11"><path class="cls-12" d="M1112.2,929c-1.31,1.63-3.73,1.63-5.8,1.42-22.84-2.37-43-15.59-61.62-29-5.22-3.75-10.45-7.63-15.54-11.68,17.58,7.24,38.59,23.08,44.06,27.34-29.45-23.92-66.61-101-41.2-109.88l.9-.28c3.56,9.19,7.08,18.42,11.82,27.24,17.15,31.92,40.55,60,65,86.71C1111.94,923.18,1114.13,926.62,1112.2,929Z" transform="translate(-724.22 -595.53)"/></g><path class="cls-12" d="M1237.3,919.38c-12.09-4.58-22.71-11.16-32.82-18.42s-19.63-15.21-28.84-23.56c-4.59-4.19-9.09-8.42-13.58-12.8s-9-9.1-13.2-13.8c-8.48-9.38-16.46-19-24.2-28.59-3.87-4.77-7.7-9.47-11.57-13.91s-7.9-8.65-11.47-11a8.09,8.09,0,0,0-2.92-1.37s0,0,.07,0v0a1.71,1.71,0,0,0,.25-.07,1.27,1.27,0,0,0,.48-.34c.31-.08.49-.54.54-.48s0-.15,0-.07a.52.52,0,0,1-.07.21,15.9,15.9,0,0,0-.53,5.51,56.42,56.42,0,0,0,.85,7.84c2,10.95,5.77,22.3,10.29,33.08a162.78,162.78,0,0,0,7.55,15.73c1.38,2.52,2.83,5,4.34,7.2a40.17,40.17,0,0,0,4.56,5.83l-13.87,12.37a436,436,0,0,0-40.68-44c-7.27-6.63-14.85-13-22.66-17.74a38.86,38.86,0,0,0-11.07-4.88,7.57,7.57,0,0,0-3.35-.08h-.25a1,1,0,0,1-.17.13c-.08.09-.31,0-.33.15a.24.24,0,0,1-.22.13.46.46,0,0,1-.2.28c-.72.83-1.63,4.49-1.21,8.6a65.71,65.71,0,0,0,2.5,13.11,153.23,153.23,0,0,0,10.86,26.74,195.7,195.7,0,0,0,15.16,25c5.64,7.78,12,15.36,18.74,20.59l-11.45,14.68a281.43,281.43,0,0,0-25.24-17.66c-4.35-2.66-8.76-5.15-13.17-7.29a57.44,57.44,0,0,0-12.76-4.71,11.55,11.55,0,0,0-4.32-.28c-.36.06-.39.14-.32.06s.15,0,.13-.13a.35.35,0,0,1-.18.22,8.26,8.26,0,0,0-.88,3.46,22.38,22.38,0,0,0,.27,5.72c1.32,8.44,5.62,17.51,10.78,25.81a150.53,150.53,0,0,0,18.66,23.56,185.2,185.2,0,0,0,22.83,20.44c8.27,6.12,17,11.55,25.37,17.67s16.74,12.35,24.11,21.14l0,0a3.35,3.35,0,0,1-2.85,5.49c-11.58-1-21.87-5.13-31.51-10.38s-18.49-12-26.94-19.06c-17-14.06-33.24-29.58-45.46-49-6-9.77-11.32-20.23-13.42-32.92a40.67,40.67,0,0,1-.4-10.21,26.05,26.05,0,0,1,3.69-11.71,34.35,34.35,0,0,1,2.27-2.93,23.19,23.19,0,0,1,3.18-2.7,20.12,20.12,0,0,1,7.07-2.83,29.34,29.34,0,0,1,11.55.3,74.66,74.66,0,0,1,17.2,6.2c5.18,2.52,10.06,5.29,14.81,8.19a298.59,298.59,0,0,1,27.13,19h0A9.3,9.3,0,1,1,1069,925.58c-9.42-7.36-16.19-15.83-22.58-24.54a214.08,214.08,0,0,1-16.64-27.43,172.32,172.32,0,0,1-12.17-30.09,84.12,84.12,0,0,1-3.17-17c-.14-1.5-.09-3.14-.12-4.7a45.67,45.67,0,0,1,.49-5.07,25.83,25.83,0,0,1,4.44-11.1c.72-.91,1.49-1.8,2.28-2.65s1.84-1.51,2.81-2.2a17,17,0,0,1,3.05-1.65l1.57-.69,1.61-.43a25.73,25.73,0,0,1,11.84-.19c6.83,1.5,12.09,4.29,17,7.18,9.72,5.92,17.81,12.87,25.67,20s15.08,14.67,22.14,22.35,13.82,15.47,20.5,23.73a9.31,9.31,0,0,1-13.83,12.42l0,0a58,58,0,0,1-6.84-8.62c-1.91-2.85-3.61-5.71-5.18-8.58a184.09,184.09,0,0,1-8.41-17.48c-4.94-11.87-9.09-23.93-11.48-37.19a74.46,74.46,0,0,1-1.12-10.47,32.76,32.76,0,0,1,1.75-12.65c.26-.65.54-1.29.83-1.92a16.5,16.5,0,0,1,1.21-2,17.08,17.08,0,0,1,3.6-3.88,21,21,0,0,1,2.47-1.49,11.3,11.3,0,0,1,1.28-.61l1.1-.36a18,18,0,0,1,4.57-.87,20.38,20.38,0,0,1,8.27,1.35,26.83,26.83,0,0,1,3.23,1.45c1,.53,1.85,1.08,2.74,1.64,6.62,4.56,10.84,9.47,15.19,14.27s8.13,9.67,12,14.44c7.74,9.53,15.35,18.88,23.59,27.51q6.16,6.46,12.74,12.39l13.62,12.07c18,16.43,36.77,31.69,51.94,51.95l0,0a3.22,3.22,0,0,1-3.72,5Z" transform="translate(-724.22 -595.53)"/><path class="cls-28" d="M1395.89,1485.77l-.24,3.51-25.84,374.61c-108.35,44.32-298,66.42-298,66.42-63.12,27.52-80.36-45.18-80.36-45.18l-97.1-103.48,16.17-366,84.91,88.52,19.2,20c36.5-10.17,63.21,9.86,63.21,9.86Z" transform="translate(-724.22 -595.53)"/><g class="cls-11"><path class="cls-12" d="M1395.65,1489.28l-25.84,374.61c-108.35,44.32-298,66.42-298,66.42-63.12,27.52-80.36-45.18-80.36-45.18l-97.1-103.48,16.17-366,84.91,88.52a117.23,117.23,0,0,1-6.7,35.31c-5.37,14.89-16.33,30.09-32.13,31.3,14.89,9.49,23.64,29.45,16.89,45.76s-30.89,23.54-43.53,11.21a71.91,71.91,0,0,0,26.18,39.92c-13.26,22.17-21.45,49.16-14.19,74s34,44.69,58.83,37.64c6.61,13.52,26.69,15.08,39.39,7s19.7-22.45,26.1-36.08q16.2-34.41,32.39-68.84c9-19.15,18.21-38.62,32.5-54.23,37.13-40.55,97.85-45.67,149.66-64a279.59,279.59,0,0,0,70.61-37.18C1363,1517.52,1379.51,1496.89,1395.65,1489.28Z" transform="translate(-724.22 -595.53)"/></g><path class="cls-12" d="M1045,1945.86a53.67,53.67,0,0,1-24.29-5.67c-24.9-12.43-35.06-41.55-37.64-50.37L887.55,1788a9.31,9.31,0,0,1-2.51-6.77l16.18-366a9.31,9.31,0,0,1,16-6l100.39,104.66a86.66,86.66,0,0,1,62.33,10.44l314.53-47.73a9.3,9.3,0,0,1,10.68,9.84l-26.09,378.11a9.3,9.3,0,0,1-5.76,8c-104.67,42.82-280.49,64.66-299.09,66.88C1064,1943.7,1054.21,1945.86,1045,1945.86Zm-141.2-167.72,94.43,100.63a9.4,9.4,0,0,1,2.27,4.22c.07.28,7.5,30.11,28.6,40.59,10.81,5.37,23.92,4.76,39-1.8a9.32,9.32,0,0,1,2.64-.72c1.85-.21,183.46-21.72,290.2-63.63l24.88-360.71-306.57,46.53a9.31,9.31,0,0,1-7-1.75c-.92-.68-23.75-17.1-55.13-8.35a9.31,9.31,0,0,1-9.21-2.52l-89-92.84Z" transform="translate(-724.22 -595.53)"/><path class="cls-14" d="M921.56,1427.17l41.93-18.54,95.92,89.47,278-43.36,38.31,32.59-297.85,46.72s-27.35-20.36-63.22-9.87Z" transform="translate(-724.22 -595.53)"/><path class="cls-12" d="M1077.84,1541.41a7.38,7.38,0,0,1-4.4-1.46c-1-.72-25-18-56.75-8.7a7.38,7.38,0,0,1-7.38-2l-93-97a7.35,7.35,0,0,1,2.33-11.82l41.93-18.54a7.33,7.33,0,0,1,8,1.35l93.3,87,274.43-42.81a7.34,7.34,0,0,1,5.9,1.66l38.32,32.59a7.36,7.36,0,0,1-3.63,12.87L1079,1541.32A7.3,7.3,0,0,1,1077.84,1541.41Zm-42.32-27.61a85.08,85.08,0,0,1,44,12.54l279.18-43.8-23.53-20-274.63,42.84a7.34,7.34,0,0,1-6.16-1.88L962,1417.32l-27.88,12.33,82.8,86.32A80.58,80.58,0,0,1,1035.52,1513.8Z" transform="translate(-724.22 -595.53)"/><path class="cls-12" d="M1010.18,1548c1.35,25.91,1.66,51.8,1.76,77.68s-.31,51.75-1,77.62c-.32,12.93-.64,25.86-1.14,38.79l-.67,19.4-.85,19.39c-1.18,25.85-2.55,51.7-4.64,77.54a2,2,0,0,1-4.08-.09c-1-25.9-1.28-51.78-1.36-77.66l0-19.42.15-19.4c.05-12.94.28-25.88.5-38.81.37-25.87,1.19-51.74,2.25-77.59s2.6-51.71,5.05-77.54a2.05,2.05,0,0,1,4.09.09Z" transform="translate(-724.22 -595.53)"/><path class="cls-12" d="M1073.84,1559.77c1.24,28.75,1.44,57.48,1.44,86.21s-.53,57.44-1.37,86.15c-.37,14.36-.75,28.71-1.3,43.06l-.76,21.53-.92,21.52c-1.29,28.7-2.77,57.39-5,86.07a2,2,0,0,1-4.08-.09c-.89-28.75-1.06-57.48-1-86.21l.06-21.54.23-21.54c.11-14.36.39-28.72.67-43.08.47-28.71,1.41-57.42,2.57-86.12,1.31-28.7,2.82-57.39,5.38-86.06a2.05,2.05,0,0,1,2.22-1.86A2.07,2.07,0,0,1,1073.84,1559.77Z" transform="translate(-724.22 -595.53)"/><path class="cls-12" d="M1357.8,1477.08l-262.67,35.52,260.86-47a5.82,5.82,0,0,1,2.06,11.45Z" transform="translate(-724.22 -595.53)"/><path class="cls-12" d="M945.44,1412.48l82.4,90.39-90.61-82.16a5.82,5.82,0,1,1,7.82-8.63A4.89,4.89,0,0,1,945.44,1412.48Z" transform="translate(-724.22 -595.53)"/><path class="cls-10" d="M1641.35,1568.61c-12.72,42.79-39.78,87.27-73.26,112.14-80.07,59.51-187.33,86.33-288.69,85.43s-44.23-62.08-44.23-62.08-60.3,27.27-77.33,4.61c-16.56-22.08,28.92-56,31.34-57.81-2.86,1.51-69,36.73-81.5,2.58a23.25,23.25,0,0,1-.35-13.61c2.73-11.45,12.17-24.82,26.18-38.27l0,0c32-30.76,88-61.82,142.89-70.7,79.57-12.87,136.45,29.19,193.63,17.28,32.18-6.72,48-16.8,55.58-24.33l.07-.07a28.88,28.88,0,0,0,6.38-8.7,9.14,9.14,0,0,0,.51-1.4l.67-.67,56.75-56,1.91-.12c27-1.37,43.45,10.29,51.41,29.15C1652.29,1507.22,1650.61,1537.46,1641.35,1568.61Z" transform="translate(-724.22 -595.53)"/><g class="cls-13"><path class="cls-14" d="M1641.35,1568.61a132.66,132.66,0,0,0-7.14-61.46c-3.58-9.87-8.33-19.48-15.47-27.13-4.37-4.7-9.56-8.56-14.73-12.4-2.93-2.19-10.12-5.65-11.72-8.91a3.39,3.39,0,0,1-.37-1.82c27-1.37,43.45,10.29,51.41,29.15C1652.29,1507.22,1650.61,1537.46,1641.35,1568.61Z" transform="translate(-724.22 -595.53)"/></g><g class="cls-11"><path class="cls-12" d="M1568.09,1680.75c-80.07,59.51-187.33,86.33-288.69,85.43-80.7-.73-60.93-39.65-49.51-55.49a66.61,66.61,0,0,1-20.26,2.49c-18.59,5.19-42.13,8.37-51.79-4.47-16.56-22.08,28.92-56,31.34-57.81-.47.25-2.65,1.42-6,3-5.54,4.19-10.84,8.73-17,11.91a43.48,43.48,0,0,1-33.69,2.49c-11.23-.07-20.77-3.86-24.8-14.84-1.83-5-1.51-10.84.7-17.17-.35-4.74.4-9.26,2.82-12.72s4-4,5.91-3.38a133,133,0,0,1,16.4-18.61c-4.89,11.38-5.31,19.61-2.63,25.43a26.33,26.33,0,0,0,13.24,1.49c17.86-2.44,33-13.82,48.48-23.1,67-40.14,155-42.69,224.25-6.52-28.62-6.21-62.94-8.2-91.65-2.55s-53.34,15.15-79.74,28.45c-8,4-14.79,8.43-25.2,13.68-12.71,7.22-14.82,11.67-18.59,18.1,4.14,5.23,10.08,8,16.29,10.14,14.59,4.93,54.9,4.16,80.33-6,41.6-16.73,73.29-29.92,130.61-30.43-51,18.45-103.2,37.41-151.31,64.51,14.75,7.33,73.26,27.43,205.14-24.12,124.66-48.74,153.9-147.34,160.6-184.59C1664.59,1536.32,1626,1637.75,1568.09,1680.75Z" transform="translate(-724.22 -595.53)"/></g><g class="cls-13"><path class="cls-14" d="M1470.05,1548.16c32.18-6.72,48-16.8,55.58-24.33a76.88,76.88,0,0,1-17.79,15.26c-15.33,9.26-33.2,13.24-50.72,17.07-15.75,3.45-31.66,7.83-47.76,7.1-40.17-1.81-67.82-14.78-100.11-14.27-16.29.26-44.62,6.47-60.32,10.73-57.49,15.59-97.37,40.93-141.6,80.15,2.73-11.45,12.17-24.82,26.18-38.27l0,0c32-30.76,88-61.82,142.89-70.7C1356,1518,1412.87,1560.07,1470.05,1548.16Z" transform="translate(-724.22 -595.53)"/></g><path class="cls-12" d="M1535.62,1514.38a19.42,19.42,0,0,1-.74,2.95c-.32.82-.61,1.7-1,2.48a40.87,40.87,0,0,1-2.55,4.53,50.9,50.9,0,0,1-6.58,7.71,75.61,75.61,0,0,1-16,11.53c-11.38,6.36-23.57,10.46-35.82,13.43a126.12,126.12,0,0,1-39.13,2.44c-12.89-1-25.16-3.72-37.13-6.52s-23.64-6-35.27-8.48c-5.82-1.41-11.62-2.33-17.43-3.45l-8.71-1.26-4.36-.61-4.35-.39c-11.62-1.4-23.22-1-34.76-.38l-8.61,1.07c-2.87.34-5.74.65-8.6,1.24s-5.72,1-8.56,1.71l-4.27.95-4.25,1.09a291.59,291.59,0,0,0-95,45.24,202.22,202.22,0,0,0-26.46,22.6,109.87,109.87,0,0,0-10.93,12.83,58.64,58.64,0,0,0-7.65,13.61c-1.7,4.53-2,8.67-1,11.49a13.92,13.92,0,0,0,2.66,4.49,12.82,12.82,0,0,0,4.21,2.81,24.9,24.9,0,0,0,6.22,1.38,43.41,43.41,0,0,0,7.46-.06,85,85,0,0,0,16.07-3.18,156.17,156.17,0,0,0,16.2-5.71c5.29-2.19,10.77-4.71,15.59-7.27a9.31,9.31,0,0,1,10,15.64l-.07,0c-9.26,7-18.6,15.73-25.06,24.82-3.18,4.52-5.6,9.4-6,13.23a9.11,9.11,0,0,0,.53,4.75c.2.32.28.68.51,1s.44.69.67,1a9.72,9.72,0,0,1,.79.91c.32.26.63.52.93.81,2.63,2.06,7.38,3.33,12.73,3.46a76.71,76.71,0,0,0,17-1.67,152,152,0,0,0,17.51-4.64c5.76-1.87,11.72-4.09,17-6.42a9.34,9.34,0,0,1,10.66,14.82h0c-.84.93-2,2.33-3,3.57s-2,2.61-2.86,4a58.56,58.56,0,0,0-4.71,8.24c-2.61,5.53-3.67,11.12-2.54,14.81a10.86,10.86,0,0,0,3.25,5.1l.59.61.76.55c.52.37,1,.78,1.53,1.13a32.34,32.34,0,0,0,3.71,2c5.33,2.45,11.85,3.95,18.52,4.95a171.41,171.41,0,0,0,20.73,1.47c7.12,0,14.38,0,21.56-.16,14.4-.52,28.79-1.34,43.11-3a529.53,529.53,0,0,0,84.74-16.08,443.7,443.7,0,0,0,80.24-30.83c3.18-1.63,6.43-3.16,9.56-4.88l9.35-5.26c6.32-3.37,12.21-7.42,18.3-11.15,3.08-1.84,5.91-4,8.85-6l8.76-6.15a147,147,0,0,0,15.57-13.51,196.44,196.44,0,0,0,26.15-32.71,243.77,243.77,0,0,0,19.71-37.39,215.28,215.28,0,0,0,12.65-40.13,130.23,130.23,0,0,0,2.21-40.73c-1.5-13.08-5.44-25.31-13.58-33.54a43.31,43.31,0,0,0-15-10c-6-2.47-12.74-3.93-19.92-5.24l-.08,0a3.18,3.18,0,0,1-.36-6.17,56.29,56.29,0,0,1,23.74-2,47.29,47.29,0,0,1,23.6,10,48.11,48.11,0,0,1,9.08,9.62,58.35,58.35,0,0,1,6.42,11.25,78.94,78.94,0,0,1,5.93,24c1.47,16.08-.61,31.62-3.73,46.62A241.08,241.08,0,0,1,1641,1597a261,261,0,0,1-21.23,40.27,214.61,214.61,0,0,1-28.65,35.8,163.77,163.77,0,0,1-17.6,15.26l-9.22,6.49c-3.09,2.13-6.09,4.4-9.32,6.33-6.38,3.94-12.6,8.18-19.21,11.72l-9.8,5.51c-3.29,1.8-6.68,3.4-10,5.11a462.18,462.18,0,0,1-83.59,32.13,549,549,0,0,1-87.78,16.65c-14.8,1.67-29.68,2.52-44.56,3-7.46.13-14.86.21-22.38.17a191.13,191.13,0,0,1-23.08-1.66c-7.79-1.19-15.73-2.86-23.74-6.5a50.36,50.36,0,0,1-6-3.23c-1-.63-1.94-1.4-2.9-2.11l-1.43-1.11-1.36-1.31a29.47,29.47,0,0,1-8.21-13.34,33.76,33.76,0,0,1-.59-15,51.93,51.93,0,0,1,4.13-12.73,78.5,78.5,0,0,1,6.17-10.82c1.13-1.71,2.34-3.33,3.57-4.95s2.45-3.08,4.08-4.87l10.63,14.83c-6.44,2.82-12.52,5.06-19,7.17a172.36,172.36,0,0,1-19.66,5.19,94.91,94.91,0,0,1-21.22,2,49.43,49.43,0,0,1-11.62-1.64,33.67,33.67,0,0,1-11.91-5.73c-.91-.77-1.81-1.55-2.68-2.36s-1.61-1.8-2.38-2.73-1.34-2-2-3a33.37,33.37,0,0,1-1.63-3.28,27.87,27.87,0,0,1-1.81-14.12,40,40,0,0,1,3.6-12,66.24,66.24,0,0,1,5.68-9.7,114.82,114.82,0,0,1,13.74-15.82c2.45-2.38,5-4.66,7.53-6.87s5.11-4.28,8.09-6.49l9.92,15.7c-5.9,3.13-11.48,5.67-17.41,8.14a174.52,174.52,0,0,1-18.15,6.39,102.46,102.46,0,0,1-19.63,3.83c-6.86.58-14.39.41-22.22-2.6a31.44,31.44,0,0,1-10.78-7.29,32.21,32.21,0,0,1-6.66-11c-.32-1.08-.61-2.17-.89-3.26-.13-.55-.28-1.1-.38-1.64l-.16-1.62-.25-3.25c0-1,.11-2.06.18-3.09a42.68,42.68,0,0,1,2.58-11.29,76.48,76.48,0,0,1,10-18.11,128.94,128.94,0,0,1,12.65-14.89,219.92,219.92,0,0,1,28.88-24.68,309.32,309.32,0,0,1,101.29-48.2l4.58-1.18,4.62-1c3.07-.72,6.18-1.31,9.3-1.85s6.26-1,9.42-1.38l9.49-1.15a235.34,235.34,0,0,1,38,.28l4.72.37,4.67.6,9.34,1.24c6.14,1.08,12.33,2.08,18.37,3.36,12.16,2.4,24.05,5.26,35.75,7.83,23.43,5.3,46.15,9.28,68,5.36,11.47-2.1,22.84-4.65,33.49-8.59l4-1.51c1.28-.57,2.54-1.16,3.85-1.7s2.51-1.21,3.77-1.83,2.44-1.33,3.62-2a47.82,47.82,0,0,0,6.72-4.71,37.51,37.51,0,0,0,2.86-2.77c.48-.48.84-1,1.27-1.48s.76-1.12.95-1.28l1.43-1.2a2.83,2.83,0,0,1,4.61,2.63Z" transform="translate(-724.22 -595.53)"/><path class="cls-12" d="M1183.67,1643.4c4.4-2.92,8.48-5.32,12.77-7.79s8.53-4.75,12.85-7q13-6.69,26.38-12.39a345.53,345.53,0,0,1,55.08-18.26,270.76,270.76,0,0,1,28.48-5.3,235.51,235.51,0,0,1,28.8-2.2,208.05,208.05,0,0,1,56.87,6.65,206.41,206.41,0,0,0-56.61-2,231.09,231.09,0,0,0-27.86,4.43,264.32,264.32,0,0,0-27.16,7.39,332.17,332.17,0,0,0-51.64,21.93q-12.42,6.5-24.28,13.91c-3.94,2.48-7.84,5-11.65,7.64s-7.68,5.37-11,8l-.1.08a9.32,9.32,0,0,1-11.54-14.63C1183.25,1643.69,1183.46,1643.54,1183.67,1643.4Z" transform="translate(-724.22 -595.53)"/><path class="cls-12" d="M1226.65,1698c14.29-5.92,28.5-11.46,42.85-16.89s28.72-10.66,43.22-15.59,29-9.71,43.76-13.94,29.51-8.14,44.48-11.08c-14.59,4.45-28.85,9.8-43,15.47s-28,11.88-41.82,18.19-27.49,13-41.09,19.74-27.15,13.74-40.4,20.88l0,0a9.32,9.32,0,1,1-8.85-16.41C1226.07,1698.23,1226.36,1698.1,1226.65,1698Z" transform="translate(-724.22 -595.53)"/><path class="cls-29" d="M1721.38,1726.69c-1.44,24.85-43.57,53.23-93.92,74.2-58.16,24.24-79.91,112.92-128.53,101-9.36-2.3-16.45-8.77-21.71-18.19-5.3-9.58-8.68-22.24-10.47-36.69-3.77-30.47-.53-68.93,6.17-103.32q1.82-9.27,3.86-17.72c8.79-36.3,20.7-61.26,32.43-77.33,12-16.43,23.71-23.57,31.66-24.08a10.89,10.89,0,0,1,5.26.86c5.77,2.67,7.77,9.42,7.44,18.21-.65,19.22-12.44,48.11-20,64.89-.34.77-.69,1.51-1,2.23a.26.26,0,0,1-.07.1c-2,4.25-3.53,7.51-4.44,9.35a.18.18,0,0,1,0,.11c-.21.4-.37.73-.48,1,.46-.81,1-1.65,1.44-2.49,1.44-2.42,3-4.91,4.77-7.47.35-.51.69-1,1.07-1.53.76-1.12,1.58-2.24,2.39-3.35,0,0,0-.05,0-.07,30.94-42.2,95.78-95.18,117.81-74.15.37.35.72.72,1.07,1.12,4.42,5,5.26,12,3.7,20.08a48.64,48.64,0,0,1-1.42,5.58c-9,29.55-43.92,69.24-54.16,80.43l-2.51,2.7a68,68,0,0,1,5.33-4.91l.09-.07c2.09-1.75,4.4-3.47,6.89-5.19,0,0,.09-.07.14-.09,32-22.06,91.91-39.69,104.52-17,.12.17.21.35.31.52A21.46,21.46,0,0,1,1721.38,1726.69Z" transform="translate(-724.22 -595.53)"/><g class="cls-13"><path class="cls-14" d="M1721.38,1726.69c-14.21-4.9-29.75-6.25-44.83-5.28-18.47,0-37.59,6.08-55.27,10.78-2.33.62-6.26,2.48-7.26-.26,0,0,.09-.07.14-.09,32-22.06,91.91-39.69,104.52-17,.12.17.21.35.31.52A21.46,21.46,0,0,1,1721.38,1726.69Z" transform="translate(-724.22 -595.53)"/></g><g class="cls-13"><path class="cls-14" d="M1662.25,1648.48a48.17,48.17,0,0,1-1.41,5.59,29.41,29.41,0,0,0-15.34-3.54c-7.65.21-15,2.79-22.07,5.7a251.51,251.51,0,0,0-34.13,17.54c-9.73,5.89-19.1,12.31-28.29,19-3.4,2.44-19.87,18.3-24.11,15.82-.76-.47.4-3.15,2.73-7.08,0,0,0,0,0-.07,30.94-42.2,95.78-95.17,117.81-74.14a14.34,14.34,0,0,1,1.08,1.12C1663,1633.45,1663.81,1640.46,1662.25,1648.48Z" transform="translate(-724.22 -595.53)"/></g><g class="cls-13"><path class="cls-14" d="M1553.57,1643.59c-12.07,7.63-30.29,20.78-32.43,22.66a177.33,177.33,0,0,0-30.43,35.06c-2.14,3.26-8.23,17.75-13.93,24.62,8.79-36.3,20.7-61.26,32.43-77.33,12-16.43,23.71-23.57,31.66-24.08a10.89,10.89,0,0,1,5.26.86C1551.9,1628.05,1553.9,1634.8,1553.57,1643.59Z" transform="translate(-724.22 -595.53)"/></g><g class="cls-11"><path class="cls-12" d="M1719,1715.37c-.1-.17-.19-.35-.31-.52a188.27,188.27,0,0,1-21.59,21.15c-18.82,15.47-40.94,25.8-63.23,36a201.07,201.07,0,0,0-37,14c-5.61,2.77-12.89,5.65-17.49,1.44-4.8-4.37-2.19-12.33,1.23-17.84,8.91-14.4,21-26.29,33.55-37.78-2.54,1.74-4.89,3.51-7,5.28l-.09.07a68,68,0,0,0-5.33,4.91l2.51-2.7c10.89-11.91,49.79-56.14,55.58-86q-22.23,23.52-46.46,45c-16.56,14.68-34.69,29-56.32,33.81-4.49,1-9.4,1.51-13.57-.47-7.18-3.4-9.14-12.24-9.74-20.43-.07-1-.12-1.88-.17-2.81a11.49,11.49,0,0,1-1,2.23.26.26,0,0,1-.07.1c-4,7-14.14,10.23-21.28,6.11-5.19-3-8.22-8.67-10-14.4-2.84-9.4-2.84-19.28-1-28.87,1.58-8.58,6.84-16.77,9-25.05-13.54,18.56-27.34,49-36.29,95.05-6.7,34.39-9.94,72.85-6.17,103.32q.49,4,1.16,7.94c.31,1.67.63,3.32,1,4.93a87.44,87.44,0,0,0,8.35,23.82c5.26,9.42,12.35,15.89,21.71,18.19,48.62,12,70.37-76.72,128.53-101S1732.88,1742.54,1719,1715.37Zm-166.53,113.87a190.09,190.09,0,0,1-18.8,28.32c-4.3,5.35-10.47,11-17.1,9.21-4.63-1.23-7.65-6-8.28-10.73s.7-9.54,2.21-14.1c4.82-14.51,11.8-28.56,22.27-39.73,6.37-6.79,21.63-15.33,27.77-2.86C1564.54,1807.47,1556.23,1822.33,1552.46,1829.24Z" transform="translate(-724.22 -595.53)"/></g><path class="cls-12" d="M1508.12,1912.32a47.91,47.91,0,0,1-11.41-1.43h0c-46.35-11.42-46.71-98.18-32.94-169,18.1-93.05,53.55-117.65,64-123,8.17-4.17,16.09-4.88,22.3-2a21.13,21.13,0,0,1,11.06,12.74c3.3,9.58,1.56,23.47-2.26,37.81,25.13-24.83,55.65-46.62,78.71-49.11,13.48-1.46,21.32,4,25.54,8.81,16.15,18.44-.35,51.61-19.74,79,20.58-8.18,42.78-13,59.19-10.66,15,2.15,21.69,9.65,24.71,15.57,4.15,8.12,4.57,17.25,1.21,26.41-12.26,33.4-72.22,61.43-97.43,71.94-24,10-41.57,32.44-58.56,54.15C1553,1888.58,1534.37,1912.32,1508.12,1912.32Zm-7-19.51c19.85,4.89,34.45-12.27,56.67-40.65,17.61-22.5,37.57-48,66.06-59.87,47.09-19.61,80.47-43,87.12-61.17,1.59-4.33,1.49-8-.31-11.52-1.49-2.91-5.12-4.8-10.79-5.62-26.06-3.76-74.39,16.68-91.65,34.73l-.15.17a9.31,9.31,0,0,1-13.5-12.82l.14-.15c30.34-31.92,66-83.12,54.36-96.47-.79-.9-2.87-3.29-9.55-2.56-28.93,3.12-85,54.66-104.19,89.42a9.31,9.31,0,0,1-16.44-8.72c13.08-25.66,29.36-68,24.59-81.85-.53-1.56-1.08-1.81-1.31-1.92-.52-.15-3.2-.06-7.7,2.64-17.11,10.27-39.88,44.29-52.46,109-13.16,67.65-10.82,140,19.11,147.37Z" transform="translate(-724.22 -595.53)"/><path class="cls-10" d="M969.42,1544.16c-1.07,15-9,22.87-15,26.73a28.27,28.27,0,0,1-7,3.33c27.71,56.25-27.31,56.67-27.31,56.67,45.93,65.77-22.75,65.35-69.49,27.71-34.78-28-36.57-69.12-35.22-88.29.11-1.49.23-2.86.37-4.07.44-4.12.93-6.52.93-6.52-20.15-28.24-25.73-73-18.43-95.8a32.62,32.62,0,0,1,3.68-7.93,15.35,15.35,0,0,1,5.23-5c10.82-5.91,21.52-.4,28.39,5,1.74,1.4,3.25,2.77,4.44,3.94a0,0,0,0,0,0,0c2,2,3.14,3.42,3.14,3.42s-3-28.8,6.66-45.53a25.7,25.7,0,0,1,4.74-6,20,20,0,0,1,6.8-4.26c6.28-2.32,14.4-2.93,25.29,2.91s24.21,17.92,41.17,40.95c5.84,7.88,12.08,17.07,18.76,27.71a4,4,0,0,0,.3.46l.07.14c12.07,19.33,18.4,34.83,21.08,47.2A59.59,59.59,0,0,1,969.42,1544.16Z" transform="translate(-724.22 -595.53)"/><g class="cls-13"><path class="cls-14" d="M858.26,1492.26c-11.72-10.15-23.63-20.24-37.15-27.85a99.73,99.73,0,0,0-19.17-8.42,15.35,15.35,0,0,1,5.23-5c10.82-5.91,21.52-.4,28.39,5,1.74,1.4,3.25,2.77,4.44,3.94a0,0,0,0,0,0,0Z" transform="translate(-724.22 -595.53)"/></g><g class="cls-13"><path class="cls-14" d="M963.86,1553.44c-4.37-22.87-18-42.73-31.87-61.46-19.08-25.8-39.41-51.14-64.65-71-4.14-3.23-8.4-6.33-12.78-9.26a20,20,0,0,1,6.8-4.26c6.28-2.32,14.4-2.93,25.29,2.91a114.35,114.35,0,0,1,11.19,9.68c10.44,9.93,20.82,20.17,30,31.27a159.16,159.16,0,0,1,19.06,28.17l.07.14c4.77,9.19,8.37,18.94,12,28.64C964.35,1522.85,969.77,1539.09,963.86,1553.44Z" transform="translate(-724.22 -595.53)"/></g><g class="cls-11"><path class="cls-12" d="M969.75,1543.42c-.1.25-.21.48-.33.74a121,121,0,0,1-13.68,24.54,8.56,8.56,0,0,0-1.3,2.19,28.27,28.27,0,0,1-7,3.33c27.71,56.25-27.31,56.67-27.31,56.67,45.93,65.77-22.75,65.35-69.49,27.71-34.78-28-36.57-69.12-35.22-88.29l.21-.21c5.79,24.61,25.56,43.44,46.27,58,8.56,6,17.75,11.7,28,13.73s22-.3,28.9-8.19c-24.13-12.1-50.86-19.5-72.54-35.6-11.87-8.79-21.71-19.84-30.5-31.75.44-4.12.93-6.52.93-6.52-20.15-28.24-25.73-73-18.43-95.8,10.24,32.83,26.34,64.3,50.74,88.45,25.39,25.11,60.49,41.6,96.13,39.74a6.71,6.71,0,0,0,4.26-1.23c1.58-1.45,1.49-4,.86-6-2.65-8.82-11.65-13.87-19.82-18.17-21.52-11.31-42.92-23.87-59-42.11-17.19-19.47-27.08-44-35.85-68.61a51.52,51.52,0,0,1,7.6,7.38s-3-28.8,6.66-45.53a89.51,89.51,0,0,0,7.12,31.59c15.7,38.06,51.46,68.89,92.5,72.38,6.37.53,14,1.37,18.59,5.09a10.1,10.1,0,0,1,3.46,5.31C972.49,1535.9,971.21,1539.83,969.75,1543.42Z" transform="translate(-724.22 -595.53)"/></g><path class="cls-12" d="M912.74,1693.43c-21,0-47.91-11.43-68-27.59-44-35.41-40-88.79-37.88-103.95-19-29.08-24.57-71-18.84-95.86,2.67-11.58,7.6-19.41,14.66-23.26,11-6,22-4,30.95.75,1.21-16.64,6.42-38,24.46-44.74h0c27.14-10.07,57.76,13.86,96.34,75.34,22.25,35.47,29.36,64.05,21.13,84.94a40.84,40.84,0,0,1-16.06,19.56c6.69,17.09,6.66,31.3-.14,42.32-5.91,9.57-15.66,14.38-24,16.8,14.66,26.24,9.24,40.35,1.32,47.74C930.85,1691,922.42,1693.43,912.74,1693.43ZM817,1457.74a11.06,11.06,0,0,0-5.37,1.37c-1.52.83-3.86,4.23-5.44,11.09-4.92,21.37.6,59.61,18.08,84.13a9.31,9.31,0,0,1,1.52,7.31c-.46,2.26-10.94,56.21,30.65,89.71,27.91,22.47,59.76,27.86,67.61,20.53,3.72-3.48,2.92-14.9-11.58-35.67a9.31,9.31,0,0,1,7.56-14.64c4.79-.07,18.44-2.1,23.55-10.45,5.32-8.71.48-22.64-4.52-32.8a9.29,9.29,0,0,1,6-13.1,22.4,22.4,0,0,0,13.37-13.3c3.94-10.39,3.71-30.6-19.7-67.9-22.13-35.27-52.93-75.64-74.09-67.79h0c-12.41,4.61-13.57,33.08-12.19,46.14a9.3,9.3,0,0,1-16.53,6.78C835.79,1469,826.53,1457.74,817,1457.74Zm44.36-50.23h0Z" transform="translate(-724.22 -595.53)"/><path class="cls-12" d="M949.11,1584.53A9.15,9.15,0,0,1,946,1584c-86.55-31.17-111.73-117.34-112.76-121a9.31,9.31,0,0,1,17.91-5.06c.27,1,23.88,80.72,101.15,108.55a9.31,9.31,0,0,1-3.15,18.07Z" transform="translate(-724.22 -595.53)"/><path class="cls-12" d="M922.86,1642a9.27,9.27,0,0,1-2.73-.41c-78.47-24-110.56-74.74-111.89-76.89a9.31,9.31,0,0,1,15.82-9.81c.43.69,30.28,47.08,101.52,68.91a9.3,9.3,0,0,1-2.72,18.2Z" transform="translate(-724.22 -595.53)"/><path class="cls-30" d="M1709.56,797c-9.46,81.19-58.25,159.66-58.25,159.66-39.41-.44-73.61-4.09-103-9.61h0c-110-20.52-153.32-66.84-153.32-66.84-4.7-38,4.87-83.4,13.78-114.95,6.46-23,12.61-38.64,12.61-38.64C1591.82,696.79,1709.56,797,1709.56,797Z" transform="translate(-724.22 -595.53)"/><g class="cls-11"><path class="cls-12" d="M1709.56,797c-9.46,81.19-58.25,159.66-58.25,159.66-39.41-.44-73.61-4.09-103-9.61a191.78,191.78,0,0,0,69-22.45c10.72-5.95,21.19-13.31,27.57-23.8s7.77-24.77.65-34.78c-6.49-9.1-18.48-12.77-29.64-12.82s-22.15,2.93-33.22,4.35c-41,5.28-82.5-11-115.7-35.66-21.78-16.24-40.62-36-58.18-56.63,6.46-23,12.61-38.64,12.61-38.64C1591.82,696.79,1709.56,797,1709.56,797Z" transform="translate(-724.22 -595.53)"/></g><path class="cls-12" d="M1651.3,965.93h-.1c-188.56-2.06-260.11-76.25-263.06-79.41a9.33,9.33,0,0,1-2.44-5.21c-8.32-67.21,25.51-154.46,27-158.14a9.3,9.3,0,0,1,7.06-5.77C1510,701.63,1585.54,722.08,1633,742c51.48,21.62,81.35,46.78,82.6,47.84a9.26,9.26,0,0,1,3.21,8.16c-9.6,82.32-57.56,160.25-59.59,163.52A9.3,9.3,0,0,1,1651.3,965.93Zm-247.49-90.15c12.64,11.47,83.37,68.48,242.24,71.46,9.9-17.12,44.59-80.72,53.62-146.26-21.15-16.05-127-89.17-271.5-66.12C1421.42,753.59,1398.45,822.32,1403.81,875.78Z" transform="translate(-724.22 -595.53)"/><path class="cls-30" d="M1625.31,605.94c-29.66-8.2-287.43,28.64-294.13,59.83-5.19,24.15,160.67,158.16,212.29,168.57,36.87,7.42,280.46-40.8,285.29-59.67C1836.78,743.38,1665.18,617,1625.31,605.94Z" transform="translate(-724.22 -595.53)"/><g class="cls-13"><path class="cls-14" d="M1822.28,782.64c-30.52-56.14-169-148.25-203.94-157.92-9.09-2.52-35.78-.84-70.51,3.67a4.46,4.46,0,0,1,.88,2.19c.72,6.42-13.24,13.26-31.15,15.26-17.4,1.93-32.2-1.42-33.64-7.51-53.51,9.51-111.72,22.68-152.87,36.45-3.54-5.4-1.84-3.56-1.23-6.35,6.7-31.17,264.47-68,294.13-59.81,39.88,11,211.48,137.42,203.45,168.71C1826.77,779.75,1829.73,779.45,1822.28,782.64Z" transform="translate(-724.22 -595.53)"/></g><path class="cls-12" d="M1554.22,844.39a67,67,0,0,1-12.58-.93c-47.87-9.65-184.76-116.12-213.7-160.27-5.15-7.87-7-14-5.86-19.38,1.23-5.72,5.64-10.81,13.49-15.57,48-29.08,261.35-59.8,292.23-51.27h0c23.58,6.52,79.7,44.39,123,78.42,94.09,74,88.77,94.77,87,101.59-1.6,6.23-6.46,12.83-47.83,24.95-23.22,6.8-55.16,14.45-90,21.55C1658.75,831.89,1587.92,844.39,1554.22,844.39ZM1340.54,667.6c2.69,8.82,30.51,40.16,85.18,83.43,50.77,40.19,98.83,70,119.59,74.18,14.73,3,75.35-4.85,144.14-18.59,73.36-14.65,120.53-28.85,130.22-35.53-1.61-8.66-24.12-37-82.18-82.44-46.52-36.44-96.89-68.83-114.66-73.74h0c-11.29-3.12-74.48,2.09-147.09,14.56C1386,644.89,1346.31,660.41,1340.54,667.6Zm-.19-.83" transform="translate(-724.22 -595.53)"/><g class="cls-11"><path class="cls-12" d="M1828.76,774.66c-4.84,18.87-248.44,67.1-285.29,59.68-51.63-10.4-217.48-144.43-212.29-168.58.9-4.21,6.39-8.54,15.33-12.84,41.62,47.07,155.73,134.21,197,142.52,31.66,6.4,215.94-28.31,270.28-50.18C1824.5,757.84,1830.41,768.24,1828.76,774.66Z" transform="translate(-724.22 -595.53)"/></g><path class="cls-10" d="M1765.61,1045.55a135.13,135.13,0,0,1-14.84,5.19c13.91-3.12,37.34-7.21,48.6-2.58,3,1.23,5.18,3.09,6,5.79a9,9,0,0,1,.35,3c-.56,21.55-53.6,91.81-201,72.15-6-.82-12.07-1.75-18.33-2.84l-4.17-4.61-13.56-15-108-119.53a432.58,432.58,0,0,0,49.6-1.7c27.36-2.4,62.47-7.73,95.83-19.5,69-24.31,139.24-80.14,165.43-62.79l.3.21a12.87,12.87,0,0,1,4,4.35c6.91,12.54-11.07,35.27-27,51.86-9.49,9.84-18.26,17.52-20.68,19.63,1.23-.9,4-3,8-5.74,21.4-15,76.54-50.67,98.48-36.27a17.32,17.32,0,0,1,5.35,5.53,3.21,3.21,0,0,1,.35.66c12.42,22.07-15.26,76-71,100.59C1768.1,1044.53,1766.87,1045.06,1765.61,1045.55Z" transform="translate(-724.22 -595.53)"/><g class="cls-13"><path class="cls-14" d="M1805.84,1056.44c-11.43,1.6-22.92,2.6-34.37,1.39a135.78,135.78,0,0,1-20-3.95c-8-2.12-7.19-4.52.39-6.12,4.61-1,9.21-1.89,13.84-2.75a132.37,132.37,0,0,1-14.84,5.19c13.91-3.12,37.34-7.21,48.6-2.58,3,1.23,5.19,3.09,6,5.79A9.6,9.6,0,0,1,1805.84,1056.44Z" transform="translate(-724.22 -595.53)"/></g><g class="cls-13"><path class="cls-14" d="M1840.29,943.4c-17.47,2.35-34.5,8.19-51.23,14-17.87,6.19-35.8,13.7-54,18.61a6.69,6.69,0,0,1,1.09-2.51c21.4-15,76.54-50.67,98.48-36.27a17.32,17.32,0,0,1,5.35,5.53A3.21,3.21,0,0,1,1840.29,943.4Z" transform="translate(-724.22 -595.53)"/></g><g class="cls-13"><path class="cls-14" d="M1775.82,907.73c-27.43,12.17-52.85,29.48-79.82,43a333.2,333.2,0,0,1-88.33,29.76,337,337,0,0,1-84.06,5.16c-3.09-.21-8.63.12-13.4-.23,27.36-2.4,62.47-7.73,95.83-19.5,69-24.31,139.24-80.14,165.43-62.79l.3.21A12.87,12.87,0,0,1,1775.82,907.73Z" transform="translate(-724.22 -595.53)"/></g><g class="cls-11"><path class="cls-12" d="M1748.79,959.59c-33.8,25-71.89,43.5-113.23,49.41a708.51,708.51,0,0,0,105.76-75.61c10.73-9.26,21.33-19.12,30.45-30C1787.43,914.27,1766.82,940.84,1748.79,959.59Z" transform="translate(-724.22 -595.53)"/></g><g class="cls-11"><path class="cls-12" d="M1768.59,1040.85c-5.17,1.24-10.36,2.35-15.54,3.4-36.74,7.44-74.61,11.75-111.7,6.3,36.5-8.14,72.7-18.72,106.23-35.31S1812,975.78,1834.66,946c1.56-2.08,3.09-4.19,4.54-6.43C1852.5,961.26,1824.82,1016,1768.59,1040.85Z" transform="translate(-724.22 -595.53)"/></g><g class="cls-11"><path class="cls-12" d="M1604,1126c-7.57-2.22-15.09-4.71-22.5-7.43q-13.54-5-26.66-10.91c-7-3.17-10.86-5.26-16.27-10.73,8.07,6.31,19.09,6.76,29.38,6.64h.95c43.83-.56,87.91-3.42,130.43-14,35.43-8.8,69.87-23.18,99.32-44.55,3.05,1.23,5.19,3.11,6,5.8C1809.87,1067.57,1759.29,1146.69,1604,1126Z" transform="translate(-724.22 -595.53)"/></g><path class="cls-12" d="M1460.08,980.4c17.51-3.5,34.86-5.75,52.09-8.06s34.37-4.92,51.28-8.32A292.77,292.77,0,0,0,1613,949.93c16-6.27,31.75-13.9,47.42-21.86s31.26-16.4,47.52-24.25A253.18,253.18,0,0,1,1733.29,893a102.05,102.05,0,0,1,14-4,49.23,49.23,0,0,1,16.22-.93c1.5.22,3,.57,4.54.89a48.83,48.83,0,0,1,4.59,1.71,25,25,0,0,1,8.45,6.4,19.26,19.26,0,0,1,1.75,2.34c.49.87,1,1.76,1.39,2.65a13.79,13.79,0,0,1,1,2.76,17.33,17.33,0,0,1,.64,2.78,24.68,24.68,0,0,1,.2,5.24c-.06.83-.11,1.66-.21,2.47l-.44,2.23a52.59,52.59,0,0,1-6.11,14.91,117.28,117.28,0,0,1-8.1,12,227,227,0,0,1-18.36,20.78c-6.47,6.52-13,12.62-20.08,18.69l-11.59-14.55c10.22-7.56,20.42-14.37,31.12-20.91a275.85,275.85,0,0,1,33.49-17.65,132.65,132.65,0,0,1,18.55-6.54c6.54-1.66,13.55-2.92,21.53-2.11,1,.1,2,.34,3.05.52a17.6,17.6,0,0,1,3.09.8c1,.35,2.09.71,3.12,1.11s2,1.06,3.06,1.63a26.7,26.7,0,0,1,9.6,9.86,32,32,0,0,1,3.83,12.11A44.9,44.9,0,0,1,1852,954c-.08,1.87-.19,3.74-.41,5.56a75.67,75.67,0,0,1-5.75,20,106.68,106.68,0,0,1-9.64,17.47,141.83,141.83,0,0,1-26.13,29,155.24,155.24,0,0,1-32.55,21.15,159.74,159.74,0,0,1-36.76,12.41l0,0a9.3,9.3,0,0,1-4.29-18.1c6.91-1.85,13.51-3.32,20.39-4.61a184.08,184.08,0,0,1,21-2.76,92.6,92.6,0,0,1,11.2-.08,42.94,42.94,0,0,1,12.65,2.48,21.56,21.56,0,0,1,7.38,4.64,16.74,16.74,0,0,1,4.93,9.41,22.78,22.78,0,0,1-.27,8.38,38.2,38.2,0,0,1-1.89,6.32c-3,7.76-7.38,13.89-12.1,19.62a112.76,112.76,0,0,1-15.66,15.26,152.13,152.13,0,0,1-36.8,21.55,204.9,204.9,0,0,1-40.25,12c-13.69,2.7-27.52,4-41.31,4.88-3.44.17-6.9.43-10.35.5l-10.35.06c-3.45-.08-6.88-.28-10.31-.55l-5.15-.39-5.11-.7c-3.4-.47-6.81-.93-10.17-1.6s-6.7-1.56-10-2.45c-1.66-.47-3.32-.91-5-1.48s-3.25-1.2-4.87-1.8a86.63,86.63,0,0,1-9.57-4.28,3.27,3.27,0,0,1-1.32-4.43,3.32,3.32,0,0,1,2.4-1.68c13.86-2.05,27-1.51,40.06-1.25s26,1.11,39,.93a215.65,215.65,0,0,0,38.46-4,187,187,0,0,0,36.6-10.92,134.2,134.2,0,0,0,32.33-18.88,94.39,94.39,0,0,0,13.08-12.72c3.79-4.55,7.19-9.58,9-14.36a20.3,20.3,0,0,0,1-3.27,8.45,8.45,0,0,0,.18-1.58c.09.16.3.7.36.69a4,4,0,0,0-1.1-.58,25.34,25.34,0,0,0-7-1.23,75.41,75.41,0,0,0-8.87.07c-12.27.87-25.36,3.52-37.6,6.73l-4.34-18.08a141.86,141.86,0,0,0,32.36-10.93,136.75,136.75,0,0,0,28.62-18.6,123.27,123.27,0,0,0,22.7-25.14,88.16,88.16,0,0,0,8-14.5,56.88,56.88,0,0,0,4.37-15c.66-4.84,0-9.35-1.47-12s-3.77-4-7.92-4.61c-4.19-.44-9.42.27-14.65,1.64a113.58,113.58,0,0,0-15.89,5.63A257.76,257.76,0,0,0,1762,964.36c-10.11,6.16-20.2,12.91-29.58,19.85a9.3,9.3,0,0,1-11.65-14.49l.06-.06c12.8-11.07,25.46-23.43,35.61-36.52a95.74,95.74,0,0,0,6.75-10,35.29,35.29,0,0,0,4-9.53l.22-1,0-.85a6.12,6.12,0,0,0,0-1.38c-.22-.66-.18-1-.63-1.38a6.45,6.45,0,0,0-2.08-1.51c-.51-.22-1.09-.37-1.63-.61s-1.29-.26-2-.38a31.47,31.47,0,0,0-10.18.72,84,84,0,0,0-11.5,3.29A236.23,236.23,0,0,0,1716,920.59c-15.65,7.56-31.24,16-47.15,24.06s-32.12,15.93-49,22.64a356,356,0,0,1-52.2,16.21,324.29,324.29,0,0,1-53.77,7.36,220.45,220.45,0,0,1-27.08-.14,147.17,147.17,0,0,1-27-4.12,3.17,3.17,0,0,1,.18-6.18Z" transform="translate(-724.22 -595.53)"/><path class="cls-12" d="M1694.46,1043.85l-.63,0a9.31,9.31,0,0,1-8.67-9.9c.12-1.8,12-180.17,15.58-221.32,2.15-24.5-72.73-77.81-126.58-107.85a9.3,9.3,0,1,1,9.07-16.25,778.94,778.94,0,0,1,67.93,43.4c47.68,34.39,70,61.32,68.12,82.33-3.57,41-15.43,219.13-15.55,220.92A9.3,9.3,0,0,1,1694.46,1043.85Z" transform="translate(-724.22 -595.53)"/><path class="cls-26" d="M1667.24,1052.17c1.7-13.62,15.16-23.16,30.07-21.3s25.62,14.41,23.92,28-15.16,23.17-30.07,21.31S1665.55,1065.8,1667.24,1052.17Z" transform="translate(-724.22 -595.53)"/><path class="cls-12" d="M1694.85,1089a38.23,38.23,0,0,1-4.75-.3,36.89,36.89,0,0,1-23.66-12.55,32,32,0,0,1,5.92-47.46,37.63,37.63,0,0,1,49.67,6.19,32.17,32.17,0,0,1,7.72,25.06C1727.65,1076.77,1712.48,1089,1694.85,1089Zm-1.27-49.8a19.46,19.46,0,0,0-11.29,3.5,15.19,15.19,0,0,0-6.53,10.52h0a15.17,15.17,0,0,0,3.75,11.79,19.81,19.81,0,0,0,12.71,6.66c10.19,1.26,19.38-5,20.49-13.85a15.17,15.17,0,0,0-3.74-11.79,19.79,19.79,0,0,0-12.73-6.66A21.72,21.72,0,0,0,1693.58,1039.22Zm-26.34,13h0Z" transform="translate(-724.22 -595.53)"/></svg>